<svg width="70" height="30" viewBox="0 0 70 30" fill="none" xmlns="http://www.w3.org/2000/svg">
<path d="M40.2473 15.3637C40.2365 15.3337 40.1508 15.1269 39.9216 15.0475C39.7243 14.9814 39.5533 15.0576 39.5182 15.0728C39.4595 15.0852 39.3967 15.0923 39.3386 15.0999C39.3386 15.0999 39.3381 15.1047 39.3422 15.11C39.1829 15.1683 38.9907 15.2229 38.7713 15.2646C38.6152 15.2946 38.4661 15.3061 38.3363 15.315C38.2937 15.3533 38.2465 15.391 38.2039 15.4293C38.1837 15.3982 38.1551 15.3564 38.113 15.3084C37.954 15.1171 37.8345 15.0792 37.7179 14.9744C37.6054 14.875 37.5389 14.7088 37.4099 14.3818C37.3104 14.1302 37.2582 14.0041 37.2803 13.8962C37.2913 13.8014 37.3415 13.6968 37.2828 13.6276C37.2454 13.5801 37.192 13.5883 37.1593 13.5413C37.1064 13.4631 37.1605 13.3253 37.1879 13.2949C37.8572 12.5803 38.4489 11.7942 38.9964 10.979C39.6415 10.1847 40.2169 9.33438 40.7563 8.46543C40.9969 8.0756 41.123 7.60527 41.4146 7.26937C41.6183 7.03371 41.6453 6.80156 41.7126 6.55008C41.7153 6.52639 41.7515 6.50179 41.7756 6.49977C41.9635 6.48315 41.9376 6.3361 41.9613 6.21401C41.9839 6.10139 41.9918 5.91025 42.0515 5.88837C42.2659 5.80759 42.237 5.64579 42.265 5.48579C42.2796 5.40106 42.3089 5.31322 42.3465 5.23595C42.4174 5.07613 42.5208 4.92486 42.5641 4.75703C42.6118 4.5513 42.5983 4.33847 42.7974 4.1839C43.0724 3.74523 42.7605 3.10409 43.2475 2.72842C43.3713 2.27703 43.2555 1.83628 43.0244 1.44457C42.8374 1.1252 42.519 1.19871 42.2436 1.14758C42.1453 1.13139 42.0344 1.14253 41.9425 1.11267C41.5088 0.947146 41.1299 1.1721 40.752 1.30594C40.3941 1.43249 40.0902 1.70936 39.7334 1.82643C39.2078 2.00077 38.976 2.47805 38.6351 2.82745C38.2832 3.18997 38.0551 3.67728 37.776 4.11066C37.4081 4.61058 37.2938 5.22632 37.0981 5.80381C37.0838 5.84536 37.0484 5.90368 37.0196 5.90514C36.8282 5.91175 36.8587 6.05934 36.8356 6.17669C36.805 6.31719 36.8071 6.50469 36.7167 6.58544C36.4192 6.84863 36.4677 7.25278 36.2729 7.5759C36.0665 7.91688 36.1452 8.43017 35.8639 8.80087C35.7218 9.98477 35.5876 11.184 35.4497 12.3732C35.4348 12.5011 35.4754 12.645 35.5286 12.7616C35.6439 13.0007 35.6192 13.2139 35.4409 13.3948C34.8081 14.0417 34.1747 14.6933 33.5164 15.3132C33.3024 15.514 33.004 15.7435 32.7519 15.7383C32.4094 15.7322 32.1361 15.8686 31.8318 15.9437C31.2071 16.0681 31.3406 16.8903 31.5906 17.2842C32.0636 18.3857 33.3908 17.5889 33.9124 16.9148C34.474 16.1828 35.1782 15.5779 35.7185 14.8243C35.744 14.8512 35.7795 14.8745 35.795 14.9052C35.9267 15.2085 36.018 15.5312 36.1854 15.8147C36.3683 16.1288 36.612 16.4115 36.8405 16.7021C36.961 16.8553 37.0408 16.9078 37.1424 16.9772C37.5176 17.2367 37.9611 17.2353 38.2657 17.1986C38.4447 17.1762 38.6594 17.1338 38.8979 17.0511C39.271 16.9167 39.5545 16.7335 39.7436 16.5825C39.8534 16.4992 40.1661 16.2282 40.2424 15.7761C40.2699 15.6208 40.2618 15.4855 40.2456 15.378L40.2473 15.3637ZM37.1111 11.4903C37.2068 10.8291 37.2236 10.1493 37.3631 9.52206C37.693 9.26742 37.6 8.87732 37.6813 8.54584C37.7503 8.36179 37.927 8.19501 37.9611 7.98291C38.0105 7.76296 37.9585 7.51206 38.2218 7.37934C38.2675 7.35582 38.2682 7.22626 38.2822 7.14627C38.3067 6.97625 38.293 6.80661 38.4907 6.7047C38.5568 6.66915 38.552 6.50534 38.5923 6.40438C38.6787 6.19353 38.7721 5.96428 38.884 5.78039C38.8728 5.34217 39.2351 5.09608 39.4038 4.75074C39.6588 4.23773 40.0317 3.85844 40.4844 3.53161C40.6667 3.39909 40.779 3.41692 40.9272 3.57814C41.156 3.82554 41.4016 4.05087 41.2755 4.43958C41.2611 4.48112 41.2612 4.56276 41.2371 4.56477C40.9607 4.60475 41.0514 4.85053 40.9763 5.00507C40.3902 6.1951 39.7988 7.38932 39.0698 8.49556C38.4768 9.49754 37.9642 10.5472 37.2602 11.4787C37.2434 11.5008 37.1786 11.4837 37.1116 11.4855L37.1111 11.4903Z" fill="#B50000"/>
<path d="M56.6048 4.88208C56.5714 4.10037 55.6116 4.11392 55.1398 4.48176C53.9582 5.33866 52.7932 6.2167 51.6941 7.18401C51.5401 7.3198 51.3996 7.38033 51.1983 7.26577C51.2551 7.02268 51.1423 6.7215 51.4684 6.58166C51.4935 6.57017 51.4949 6.51751 51.5087 6.4807C51.6404 6.20789 51.7093 5.86056 51.8848 5.62163C52.0355 5.43263 52.2451 5.26968 52.3226 5.053C52.5297 4.50083 53.0438 4.1379 53.2013 3.56078C53.2046 3.53236 53.2627 3.52469 53.2848 3.49844C53.3395 3.43757 53.4136 3.37414 53.4265 3.30362C53.4643 3.10153 53.4879 2.8978 53.4969 2.69718C53.5167 2.32017 53.0192 1.96479 52.7313 2.18589C52.2347 2.60366 51.8326 3.15242 51.5093 3.71993C51.3585 3.95211 51.1575 4.16408 51.0473 4.41539C50.8581 4.8544 50.4962 5.22056 50.4657 5.73078C50.4629 5.75447 50.4439 5.79547 50.4245 5.79803C50.1689 5.86442 50.2674 6.12551 50.1714 6.25363C49.9954 6.4973 49.9633 6.81528 49.8011 7.02214C49.6615 7.19801 49.6281 7.3622 49.5826 7.54898C49.5407 7.66415 49.447 7.77333 49.3768 7.88523C49.3503 7.94937 49.329 8.00933 49.3031 8.06874C49.281 8.17662 49.2772 8.29141 49.2635 8.40986C49.2259 8.40549 49.1835 8.40058 49.1553 8.39731C48.8739 8.97447 48.5304 9.51082 48.1988 10.0678C47.8609 10.6384 47.559 11.2276 47.2476 11.8156C47.2084 11.9071 47.1733 12.0039 47.1388 12.0959C47.1635 12.0892 47.1828 12.0866 47.2011 12.0935C46.7681 12.7443 46.6169 13.5959 45.9183 14.0286C45.6249 14.2155 45.5822 14.4602 45.7867 14.7528C45.9335 14.9667 46.0961 15.168 46.2692 15.3609C46.5769 15.7087 47.2177 15.6101 47.3565 15.1941C47.4219 15 47.4187 14.822 47.6117 14.6379C47.7616 14.4968 47.7441 14.1539 47.9415 13.9319C48.0626 13.7923 47.9959 13.5445 48.2083 13.3579C48.3676 13.2179 48.3125 12.8706 48.5292 12.646C48.6591 12.5123 48.5684 12.1848 48.8223 12.051C48.8375 12.0432 48.8471 12.0011 48.8499 11.9774C48.8734 11.692 48.982 11.455 49.1309 11.1985C49.3934 10.744 49.7692 10.5043 50.2328 10.3708C50.6127 10.2612 50.8068 10.4374 50.767 10.8217C50.7049 11.357 50.7076 11.9095 50.5667 12.4261C50.3976 13.0211 50.7341 13.4491 50.9277 13.918C51.0805 14.2863 51.9861 14.5353 52.3282 14.3397C53.1919 13.8396 53.9002 13.0767 54.4429 12.261C54.6577 12.0122 54.6359 11.7888 54.7043 11.5278L54.3044 11.4815C54.3064 11.5057 54.3125 11.5352 54.3144 11.5595C54.1913 11.5932 54.0729 11.6275 53.9462 11.6512C53.8242 11.6755 53.68 11.6444 53.5783 11.6998C53.1224 11.9302 52.7096 12.2425 52.2233 12.4069C52.2036 12.371 52.1834 12.3399 52.1637 12.304C52.2098 11.906 52.279 11.5155 52.2969 11.1143C52.3126 10.732 52.4495 10.3733 52.2505 9.95174C52.0551 9.54016 51.91 9.18725 51.4456 9.08059C51.3872 8.68009 51.5701 8.41801 51.8904 8.20547C52.5928 7.73954 53.2703 7.24191 53.9846 6.79657C54.108 6.71965 54.4409 6.76785 54.5146 6.87242C54.7019 7.14862 54.911 7.07203 55.1284 7.00601C55.482 6.91736 55.6278 6.56455 55.8213 6.29409C55.9503 6.1266 56.1107 5.97715 56.222 5.798C56.4025 5.51643 56.6195 5.24869 56.6012 4.87206L56.6048 4.88208Z" fill="#B50000"/>
<path d="M9.62021 12.1921C9.5456 12.63 9.22261 12.8662 8.99653 13.1713C8.82103 13.4102 8.67266 13.6619 8.49716 13.9008C7.9938 14.5003 7.58319 15.1633 7.15015 15.8141C6.84166 16.1721 6.56971 16.5439 6.36337 16.9665C6.20089 17.2165 6.02484 17.4602 5.84102 17.6885C5.72998 17.9061 5.66268 18.1576 5.50898 18.3319C5.14105 18.7501 4.96137 19.2719 4.68783 19.7395C4.24697 20.2934 3.93069 20.9241 3.59614 21.5479C3.42957 21.8743 3.1163 22.1501 3.03692 22.5058C2.68248 22.8488 2.56364 23.3392 2.26181 23.7219C1.90995 24.1661 1.58871 24.1817 1.23858 23.7473C0.976254 23.4192 0.739649 23.0749 0.802341 22.6164C0.807834 22.5691 0.800862 22.5058 0.827681 22.4801C1.24132 22.12 1.08675 21.6027 1.19068 21.1586C1.22017 21.0276 1.19431 20.8805 1.38077 20.8349C1.53117 20.6891 1.4811 20.3808 1.52824 20.1798C1.55296 19.9666 1.5896 19.774 1.72722 19.5739C1.86375 19.3833 1.85076 19.0841 1.9081 18.8362C1.9387 18.6957 1.91229 18.5534 2.08762 18.4393C2.19575 18.3702 2.19554 18.1253 2.22943 17.9564C2.27162 17.7981 2.254 17.58 2.29926 17.4364C2.73907 17.2617 2.50545 16.8505 2.61062 16.5602C2.65203 16.4497 2.61927 16.3211 2.79217 16.2691C2.85137 16.252 2.88055 16.0825 2.90204 15.9794C2.95523 15.7263 2.95502 15.4814 3.12636 15.2371C3.28085 15.015 3.27696 14.6784 3.39295 14.4182C3.45153 14.3242 3.52838 14.237 3.55928 14.135C3.59819 14.0051 3.58228 13.8544 3.61648 13.7239C3.79717 13.3991 3.88815 13.0256 4.00102 12.6689C3.97028 12.6462 3.9343 12.6276 3.90356 12.6048C3.10138 13.232 2.32774 13.901 1.51365 14.5076C1.32451 14.6585 1.14681 14.9164 0.90135 14.5662C0.856192 14.5034 0.737483 14.4992 0.64614 14.4646C0.63535 14.1465 0.693788 13.8892 0.991605 13.6644C1.84021 12.9658 2.58964 12.1356 3.38422 11.3683C3.87849 10.8062 4.44864 10.3297 5.04843 9.88549C5.0852 9.85614 5.15216 9.8543 5.20391 9.8603C5.47677 9.89194 5.75433 9.92412 6.06012 9.95957C5.98981 10.566 5.9206 11.163 5.85194 11.7552C5.84809 11.7884 5.82848 11.8341 5.80277 11.8503C5.5226 12.0051 5.59949 12.2877 5.53854 12.5255C5.47039 12.7433 5.30979 12.9359 5.24994 13.1642C5.16163 13.4325 5.32131 13.7823 4.95207 13.9652C4.88126 14.0002 4.90774 14.2241 4.88656 14.3657C4.86129 14.5836 4.83877 14.7779 4.66461 14.9642C4.54573 15.0848 4.58193 15.3483 4.52177 15.5382C4.46051 15.7375 4.2927 15.9101 4.24086 16.1106C4.20893 16.3037 4.19581 16.4991 4.17329 16.6933C4.16725 16.7455 4.16677 16.8318 4.13635 16.8475C3.71731 17.0486 3.95203 17.4503 3.82279 17.7426C4.03229 17.7861 3.9963 17.7676 4.07033 17.6225C4.18828 17.3865 4.36464 17.1813 4.50501 16.9575C5.49916 15.2914 6.55116 13.6608 7.73135 12.1171C8.21349 11.2896 8.86341 10.5775 9.46848 9.84099C9.78638 9.48413 10.1126 9.13783 10.456 8.80793C10.7667 8.51266 11.5271 8.45197 11.8767 8.68457C12.1378 8.85888 12.1572 9.14441 12.1494 9.41719C12.1225 9.73098 12.0941 10.1406 12.0219 10.4347C11.6596 10.6808 11.7709 11.0778 11.7031 11.4157C11.6488 11.6783 11.6839 11.9512 11.439 12.1725C11.327 12.2747 11.3632 12.5382 11.3266 12.7308C11.2706 13.0076 11.3489 13.3192 11.0381 13.5328C10.9446 13.5988 10.9778 13.8476 10.9538 14.0128C10.9335 14.1881 10.9132 14.3634 10.8929 14.5387C10.8863 14.5956 10.8858 14.6819 10.8554 14.6976C10.4847 14.8515 10.6303 15.1997 10.5666 15.4612C10.5297 15.6154 10.5303 15.7739 10.5122 15.9302C10.5056 15.9871 10.511 16.0645 10.4794 16.0897C10.0707 16.4072 10.2433 16.893 10.1302 17.2928C10.0891 17.4416 9.99261 17.5745 9.93324 17.7165C9.78659 18.0356 9.78357 18.3905 9.74402 18.7316C9.7659 18.7486 9.78777 18.7655 9.80965 18.7825C10.3309 18.358 10.5985 17.736 10.9848 17.1998C12.2957 15.3928 13.4518 13.4814 14.6787 11.6166C15.0617 11.0272 15.5156 10.4845 15.8537 9.87069C16.2295 9.17963 16.7619 8.61717 17.2506 8.02083C17.4728 7.74891 17.8117 7.58173 18.0428 7.31563C18.3507 6.96242 18.6855 6.66513 19.1248 6.49519C19.4011 6.29195 19.6784 6.07923 19.9901 5.89931C20.2006 5.77006 20.5183 5.53802 20.735 5.60155C21.0302 5.85184 21.4274 6.00353 21.5968 6.39288C21.6717 6.56961 21.5974 6.75786 21.5959 6.93534C21.6114 7.33567 21.4177 7.64932 21.2052 7.96078C20.9786 8.27061 20.8353 8.64291 20.591 8.94108C20.0457 9.44924 19.5088 9.96797 18.947 10.455C18.1094 11.1405 17.2356 11.769 16.5207 12.5888C16.3966 12.7137 16.2595 12.8274 16.1104 12.9206C15.5697 13.266 15.2467 13.7903 14.9268 14.3294C14.5642 14.9068 14.1521 15.4592 13.8339 16.0657C13.5235 16.481 13.258 16.9208 12.9966 17.3658C12.2856 18.4405 11.4057 19.4092 10.704 20.4851C10.5167 20.785 10.2626 20.962 10.0359 21.1902C9.91118 21.3198 9.84302 21.5376 9.70227 21.6413C9.4835 21.76 9.25532 21.8776 9.01742 21.9556C8.9383 21.9801 8.81647 21.8795 8.71211 21.8338C8.698 21.8322 8.69823 21.789 8.68412 21.7873C8.24575 21.7029 8.17098 21.3197 8.03733 20.9921C7.98214 20.8513 7.99196 20.6844 7.93152 20.5477C7.73162 20.0924 7.85186 19.631 7.9046 19.1762C7.92767 18.9772 7.89068 18.7616 8.1169 18.6198C8.19351 18.5759 8.20803 18.4095 8.22176 18.2911C8.26963 17.9605 8.29867 17.6278 8.33712 17.2961C8.3547 17.1445 8.31386 16.9621 8.54737 16.922C8.5814 16.9163 8.60924 16.7995 8.61748 16.7285C8.65295 16.4637 8.67955 16.1931 8.71086 15.923C8.73809 15.7293 8.70001 15.5233 8.92097 15.3856C8.99758 15.3417 9.00324 15.1695 9.03054 15.0574C9.11432 14.6638 9.00851 14.2194 9.36906 13.9059C9.39588 13.8802 9.39832 13.8181 9.40326 13.7754C9.45929 13.2922 9.48239 12.8051 9.76039 12.3812C9.85904 12.2294 9.80722 12.1418 9.61355 12.1673L9.62021 12.1921Z" fill="#B50000"/>
<path d="M12.385 25.5198C12.2735 25.6173 12.2044 25.7198 12.1627 25.7101C11.7594 25.6105 11.4351 25.8994 11.0593 25.9327C10.9243 25.9459 10.7918 25.9785 10.661 25.9969C10.6416 25.9995 10.6145 25.9868 10.6092 25.9909C10.3803 26.2381 10.0518 26.152 9.77099 26.2299C9.47084 26.3103 9.20815 26.5199 8.86057 26.4748C8.67239 26.453 8.46357 26.568 8.27021 26.632C7.1222 26.9935 5.99277 27.4003 4.89994 27.9026C4.36415 28.1238 3.80673 28.2848 3.30505 28.5819C2.84783 28.7834 2.36818 28.9727 1.96388 29.2523C1.82151 29.0821 1.5275 28.904 1.68002 28.6576C1.74801 28.5647 1.84423 28.475 1.94601 28.4196C2.55919 28.1065 3.17708 27.7941 3.80218 27.5016C5.41472 26.7523 7.05525 26.0494 8.77401 25.5765C9.114 25.4815 9.47037 25.4508 9.77649 25.2366C9.82323 25.2036 9.92233 25.2535 9.99039 25.2422C10.1852 25.2072 10.3791 25.1384 10.5702 25.0934C10.6242 25.0804 10.7031 25.0992 10.7257 25.0682C10.9153 24.8309 11.1161 24.9502 11.3363 24.9421C11.5135 24.689 11.8312 24.8266 12.0486 24.679C12.131 24.6261 12.2575 24.6456 12.3607 24.6191C12.4544 24.5916 12.5452 24.5493 12.6353 24.5117C12.6605 24.5003 12.6754 24.454 12.6942 24.4561C12.9765 24.4889 13.2263 24.4314 13.4968 24.3187C13.8282 24.1747 14.2245 24.211 14.5608 24.0244C14.6117 23.9966 14.6828 24.0001 14.745 23.9977C14.9072 23.9973 15.0896 24.1097 15.1946 23.8626C15.2136 23.8216 15.4148 23.8545 15.533 23.8634C15.6559 23.8728 15.779 23.9207 15.8564 23.7472C15.876 23.7015 16.0459 23.7164 16.151 23.7142C16.2943 23.7116 16.4721 23.8234 16.5424 23.5867C16.5446 23.5678 16.5903 23.5442 16.6085 23.5512C16.8776 23.616 17.103 23.5221 17.353 23.4214C17.828 23.2316 18.4036 23.2839 18.8846 23.1236C19.1316 23.0082 19.4405 23.0584 19.6147 22.9538C19.8556 22.8089 20.0438 22.8307 20.2712 22.8427C20.3042 22.8465 20.367 22.8394 20.3733 22.8257C20.4575 22.5522 20.6643 22.701 20.8239 22.6811C20.9255 22.6689 21.0142 22.6023 21.1133 22.5706C21.1924 22.5462 21.2798 22.5323 21.3614 22.5273C21.5252 22.5127 21.7315 22.6663 21.8303 22.3896C21.8383 22.3618 22.0025 22.3856 22.0929 22.3865C22.241 22.3844 22.4223 22.5063 22.5131 22.2575C22.5269 22.2207 22.7146 22.2473 22.8192 22.2498C22.9572 22.2514 23.1225 22.3474 23.1818 22.1238C23.1835 22.1096 23.2097 22.0886 23.2191 22.0897C23.5153 22.1673 23.7744 22.0293 24.0458 21.9503C24.2135 21.9025 24.435 22.0482 24.554 21.8028C24.7808 21.7378 25.0752 21.9544 25.2614 21.6639C25.2899 21.624 25.4341 21.6551 25.5282 21.666C25.6787 21.6835 25.798 21.6829 25.9226 21.5533C25.9931 21.4799 26.1891 21.517 26.3576 21.5029C26.3653 21.4366 26.3757 21.3466 26.3861 21.2565C26.409 21.1007 26.3734 20.9142 26.5867 20.8429C26.6213 20.8325 26.64 20.753 26.6555 20.702C26.8379 20.1566 26.9389 19.5729 27.2429 19.0896C27.3096 18.8428 27.3351 18.5817 27.3972 18.3344C27.4888 18.0378 27.6645 17.7557 27.7144 17.4493C27.8307 16.6514 27.8258 15.8298 28.147 15.0748C28.1683 15.0148 28.2033 14.918 28.1778 14.8911C27.9283 14.6173 28.1361 14.3053 28.091 13.9543C27.6885 14.0949 27.2564 14.2849 26.8377 14.1547C26.6727 14.0972 26.545 13.9239 26.4013 13.8064C26.1476 13.609 26.161 13.3704 26.2186 13.0794C26.2414 12.9236 26.216 12.6902 26.3037 12.6332C26.5042 12.5076 26.7565 12.4696 26.9881 12.4052C27.0279 12.3906 27.0999 12.4278 27.1214 12.4063C27.4324 12.0678 27.7935 12.3257 28.1288 12.3118C28.1817 12.3083 28.237 12.3243 28.3123 12.3331C28.4161 11.4376 28.57 10.5624 28.5906 9.68612C28.5956 9.3554 28.4647 9.00411 28.4917 8.64714C28.5055 8.5287 28.3623 8.40647 28.339 8.27892C28.2883 7.97536 28.4946 7.7592 28.6538 7.53758C28.688 7.48874 28.7965 7.4581 28.8629 7.461C29.2481 7.51046 29.7611 7.4451 30.0107 7.80054C30.2143 8.14105 30.3682 8.4998 30.267 8.9202C30.2183 9.13541 30.2154 9.36555 30.1854 9.58294C30.1535 9.7761 30.2243 10.0292 29.9341 10.106C29.9142 10.1133 29.8982 10.169 29.8943 10.2022C29.8493 10.5907 29.8048 10.9744 29.7597 11.3629C30.0932 11.4064 30.4926 11.1694 30.642 10.8266C30.7008 10.6894 30.75 10.5943 30.9215 10.595C31.0026 10.5948 31.0944 10.543 31.1669 10.4938C31.8502 9.98722 32.6284 10.1015 33.3955 10.2288C33.4729 10.5067 33.5966 10.7563 33.5794 11.028C33.4937 11.479 33.3178 11.8859 32.9453 12.1788C32.7462 12.3334 32.5305 12.4668 32.3616 12.6489C32.0843 12.9433 31.7759 13.0131 31.395 12.9258C31.1255 12.8657 30.8366 12.8898 30.5734 12.8161C30.1342 12.698 29.8721 12.9845 29.5884 13.2108C29.5254 13.2612 29.5241 13.3955 29.5084 13.4897C29.3304 15.0247 29.153 16.555 28.9656 18.089C28.9326 18.2916 28.7349 18.4751 28.683 18.6756C28.6407 18.9588 28.6166 19.2489 28.5789 19.5326C28.5522 19.7215 28.6111 19.954 28.3356 20.0277C28.311 20.0345 28.2933 20.1044 28.2884 20.1471C28.2532 20.4503 28.218 20.7535 28.1725 21.1468C28.4009 21.0676 28.5445 21.0218 28.7191 20.9557C29.2279 20.885 29.7478 20.8829 30.2299 20.7131C30.4801 20.6941 30.7299 20.7183 30.9634 20.5965C30.9578 20.5622 30.9517 20.5327 30.9508 20.499C31.0779 20.5137 31.2032 20.5427 31.3319 20.5432C31.5497 20.5156 31.7662 20.4159 31.9917 20.4036C32.1838 20.3923 32.4047 20.5427 32.5506 20.2715C32.5696 20.2305 32.7409 20.2744 32.8408 20.2764C32.9407 20.2784 33.0985 20.3159 33.128 20.2665C33.29 20.0212 33.5026 20.1611 33.6952 20.145C33.9124 20.1221 34.1176 19.9971 34.3409 20.0038C34.5354 20.0119 34.7145 20.0711 34.9011 19.9007C34.9968 19.8157 35.2337 19.9104 35.4069 19.8969C35.5226 19.8863 35.6385 19.8325 35.7472 19.7587C36.0272 19.7287 36.3225 19.8542 36.5802 19.6056C36.6286 19.5584 36.7747 19.6138 36.8741 19.6205C37.0393 19.6348 37.1746 19.6601 37.3433 19.5212C37.4594 19.4243 37.7293 19.5228 37.9255 19.5167C38.0306 19.5145 38.1318 19.4638 38.2356 19.4326C38.23 19.3984 38.2291 19.3647 38.2236 19.3304C38.4234 19.3344 38.745 19.4389 38.9201 19.3679C39.1178 19.1844 39.3495 19.2833 39.563 19.2504C39.9227 19.1913 40.2885 19.1617 40.6398 19.092C40.8744 19.0424 41.0908 18.9858 41.3296 19.0231C41.3766 19.0286 41.4403 19.0552 41.4666 19.0342C41.7414 18.802 42.096 18.9919 42.3508 18.8918C42.6758 18.7615 43.0188 18.8877 43.2658 18.7722C43.5836 18.6218 43.9013 18.7595 44.152 18.6541C44.4833 18.5101 44.8299 18.6463 45.0816 18.5314C45.3988 18.3858 45.6711 18.4221 45.9739 18.4428C46.0021 18.4461 46.0403 18.4457 46.0519 18.4279C46.2465 18.1479 46.5097 18.3033 46.7471 18.3116C46.8706 18.3163 47.0015 18.3795 47.0658 18.1949C47.2218 18.0834 47.5171 18.2088 47.7003 18.1917C47.796 18.1884 47.8931 18.1324 47.9874 18.1001C47.9819 18.0659 47.9758 18.0363 47.9749 18.0026C48.1584 18.0239 48.3371 18.0446 48.5206 18.0659C48.6523 18.0812 48.7979 18.1413 48.8633 17.9472C49.0182 17.8451 49.334 17.9586 49.5244 17.9614C49.5762 17.9674 49.6703 17.9783 49.6819 17.9605C49.8401 17.6235 50.1087 17.8563 50.3259 17.8335C50.4562 17.8198 50.6032 17.9088 50.6692 17.71C50.8241 17.6079 51.1164 17.7187 51.302 17.721C51.3585 17.7275 51.4468 17.7474 51.4636 17.7253C51.6637 17.398 51.9475 17.623 52.194 17.5939C52.3102 17.5786 52.4162 17.5285 52.5299 17.4936C52.5284 17.4647 52.5218 17.4399 52.5204 17.4109C52.685 17.43 52.8522 17.4686 53.0149 17.4634C53.2609 17.4391 53.5043 17.3137 53.7594 17.3337C54.0192 17.3542 54.2741 17.4174 54.5241 17.2351C54.6228 17.1649 54.8274 17.2511 54.9807 17.2448C55.3832 17.1859 55.7941 17.1375 56.205 17.1707C56.3949 17.1783 56.5834 17.2386 56.7423 17.0601C56.7802 17.0213 56.8754 17.0228 56.9459 17.0309C57.1958 17.0551 57.443 17.103 57.6903 17.1076C57.9994 17.1147 58.3134 16.9974 58.6183 16.9992C59.1604 17.0524 59.702 17.1104 60.2414 17.1873C60.5366 17.2312 60.8202 17.2112 61.0961 17.4641C61.2725 17.6286 61.4788 17.7822 61.6425 17.974C61.6929 18.0326 61.7217 18.1128 61.6863 18.1711C61.6217 18.3173 61.5153 18.4538 61.493 18.6049C61.4193 19.0765 61.1036 19.4144 60.6324 19.4894C60.514 19.5237 60.3794 19.6569 60.2549 19.6617C59.8702 19.6075 59.4399 19.6584 59.1207 19.4101C59.0581 19.3741 59.0019 19.3243 58.9319 19.3114C58.3687 19.1933 57.8748 18.8479 57.2685 18.8545C56.9965 18.8566 56.719 18.6179 56.4465 18.6247C55.9977 18.6303 55.5286 18.6047 55.0968 18.6699C54.7523 18.7212 54.4272 18.7699 54.0843 18.7254C54.0467 18.721 53.995 18.715 53.9787 18.7323C53.6967 19.0261 53.3594 18.8094 53.0391 18.8587C52.6828 19.0526 52.315 18.9764 51.9475 18.9386C51.68 19.2725 51.3358 18.9925 51.0235 19.0955C50.7591 19.2377 50.4682 19.156 50.2007 19.2018C49.8457 19.2615 49.4624 19.2362 49.146 19.334C48.8242 19.4359 48.545 19.4179 48.2412 19.4067C48.1989 19.4018 48.1325 19.3989 48.1156 19.421C47.9442 19.6652 47.7048 19.551 47.492 19.5359C47.3262 19.5263 47.1831 19.4857 47.0217 19.6447C46.9401 19.7312 46.6927 19.6449 46.5253 19.6495C46.3914 19.6532 46.207 19.5166 46.1574 19.7797C46.1552 19.7987 46.0254 19.8076 45.959 19.8047C45.6751 19.7862 45.403 19.7067 45.1165 19.8751C44.9832 19.9557 44.7526 19.8473 44.585 19.8951C44.2602 19.9823 43.9437 20.08 43.6011 19.9923C43.541 19.9757 43.4669 20.0392 43.3978 20.0599C43.2794 20.0942 43.1588 20.1475 43.0401 20.1433C42.7938 20.1292 42.5649 20.0882 42.3323 20.2437C42.2342 20.3091 42.0484 20.2252 41.9034 20.242C41.7438 20.2619 41.5875 20.335 41.4243 20.3449C41.2317 20.361 41.0336 20.3428 40.839 20.3347C40.6874 20.3267 40.5011 20.2475 40.5121 20.5224C40.2957 20.4973 40.1097 20.4566 39.9277 20.4643C39.7586 20.4831 39.5983 20.6325 39.4184 20.6213C39.1641 20.635 38.89 20.4496 38.6562 20.7394C38.6009 20.805 38.377 20.7214 38.23 20.714C38.1307 20.7073 37.9782 20.6656 37.9439 20.7144C37.759 20.9522 37.5204 20.7901 37.3187 20.8436C36.9505 20.9353 36.5739 20.9349 36.212 21.013C35.9968 21.06 35.7993 21.1187 35.5839 21.0842C35.5228 21.0771 35.4256 21.0514 35.3983 21.0819C35.1407 21.4121 34.7594 21.123 34.4723 21.2146C34.3682 21.4954 34.1578 21.3366 33.9898 21.3459C33.937 21.3494 33.865 21.3122 33.8293 21.3321C33.5386 21.4952 33.2351 21.5225 32.9138 21.4564C32.8809 21.4526 32.8206 21.5608 32.7485 21.6485C32.5058 21.6444 32.175 21.4956 31.9511 21.7001C31.7926 21.7922 31.4818 21.7177 31.2878 21.7048C31.2939 21.7343 31.2953 21.7633 31.3014 21.7928C30.8896 21.9323 30.4535 21.9922 30.0183 22.0042C29.8738 22.0162 29.6717 21.868 29.6205 22.1453C29.6188 22.1595 29.5555 22.1714 29.5226 22.1676C28.9063 22.0961 28.3387 22.3856 27.7358 22.4453C27.5814 22.4611 27.4027 22.7284 27.3237 22.9161C27.1627 23.2768 26.7485 23.6417 26.431 23.8305C25.917 23.6989 24.6888 23.8062 24.7828 22.996C24.277 23.0814 23.8167 23.2682 23.3261 23.2641C22.9814 23.3586 22.6398 23.4678 22.2951 23.5623C22.2213 23.5825 22.1263 23.5379 22.0483 23.5529C21.6372 23.6444 21.2239 23.755 20.8216 23.8524C20.6177 23.8431 20.4032 23.7607 20.2481 23.9876C20.2255 24.0185 20.107 23.9712 20.0384 23.9872C19.8389 24.0217 19.6439 24.0999 19.4486 24.1397C19.2447 24.1305 19.026 24.0427 18.8793 24.2802C18.6676 24.3373 18.3639 24.1196 18.2059 24.4134C17.9862 24.4983 17.6722 24.2459 17.5162 24.5639C17.2935 24.6341 16.9873 24.3969 16.8265 24.7144C16.6154 24.7667 16.3106 24.5585 16.1489 24.8423C16.131 24.8738 16.0291 24.8476 15.9705 24.86C15.7049 24.9301 15.4399 24.9954 15.1715 25.0074C14.5216 25.1434 13.8832 25.3862 13.2192 25.4389C13.0626 25.4736 12.9108 25.5904 12.7475 25.6003C12.6094 25.5987 12.4747 25.5686 12.3853 25.5583L12.385 25.5198Z" fill="#B50000"/>
<path d="M59.9748 6.57401C59.927 6.9862 59.8754 7.43155 59.8243 7.87216C59.8194 7.9148 59.8059 7.99006 59.7766 7.99626C59.4999 8.07942 59.5389 8.31921 59.5305 8.5151C59.5182 8.74415 59.4409 8.91764 59.2445 9.04852C59.1101 9.13857 59.0007 9.26032 58.8782 9.37095C58.5338 8.92771 58.3321 8.61143 58.0746 8.07742C57.0188 8.21909 56.027 9.00197 55.5491 9.99809C55.7743 9.94737 55.9611 9.94022 56.1038 9.86074C56.3184 9.73677 56.4865 9.52099 56.7041 9.41178C57.098 9.22218 57.5104 8.9963 57.9672 9.25092C58.4483 9.46035 58.2478 10.3254 57.9819 10.6451C57.7436 10.8911 57.4905 10.977 57.1457 10.9082C56.3306 10.7417 56.5175 11.8437 56.4007 12.3583C56.5916 12.4381 56.7236 12.4102 56.8906 12.2855C57.0524 12.165 57.2801 12.1338 57.474 12.065C57.803 11.9831 58.062 11.7635 58.3599 11.6204C58.7527 11.4402 59.1053 11.2363 59.0252 10.694C59.0564 10.712 59.0883 10.7253 59.1195 10.7434C59.3241 10.4598 59.3517 10.0981 59.5009 9.79846C59.5821 9.67344 59.8959 9.68101 60.0173 9.57985C60.1513 9.36972 60.2299 9.43165 60.343 9.60801C60.4524 9.77434 60.5428 9.98168 60.8032 9.99747C60.855 10.0035 60.9027 10.1675 60.9446 10.2587C61.0494 10.5062 61.0163 10.7088 60.8904 10.9727C60.7258 11.3233 60.526 11.6074 60.2644 11.8892C59.9819 12.1877 59.7281 12.4848 59.3381 12.6413C59.2333 12.6819 59.1252 12.751 59.04 12.8276C58.638 13.1699 58.1131 13.2147 57.6589 13.4309C57.4769 13.5202 57.2675 13.5583 57.0891 13.6577C56.7454 13.8675 56.3811 13.7197 56.0166 13.6966C55.1898 13.5911 54.9074 12.819 55.0935 12.0771C55.1401 11.8809 55.0442 11.6393 55.3111 11.5166C55.3866 11.4821 55.3928 11.3052 55.4295 11.1942C55.3847 11.1698 55.3634 11.1481 55.3393 11.1501C54.693 11.2144 54.5251 10.6476 54.2306 10.2677C54.148 10.1573 54.2195 9.91115 54.2451 9.73166C54.2676 9.53741 54.2295 9.33133 54.4792 9.19224C54.6272 9.10856 54.7347 8.88094 54.7843 8.69944C54.8414 8.4948 54.9669 8.39892 55.1218 8.29684C55.4006 8.11309 55.6226 7.88435 55.7905 7.58693C55.874 7.44296 56.0175 7.31555 56.166 7.22714C56.9661 6.78214 57.7868 6.11866 58.7536 6.37479C58.8936 6.40063 59.0558 6.48186 59.1533 6.25789C59.1671 6.22108 59.4153 6.25946 59.538 6.31209C59.6836 6.37219 59.8048 6.47748 59.9643 6.58239L59.9748 6.57401Z" fill="#B50000"/>
<path d="M20.8596 17.5621C20.6384 17.6612 20.5422 17.8325 20.5048 18.0731C20.4853 18.2005 20.3846 18.328 20.292 18.4277C19.7699 19.025 19.1643 19.5598 18.4391 19.8934C18.0668 20.0615 17.6086 20.066 17.2784 20.2822C16.9277 20.5104 16.6315 20.3512 16.3061 20.3615C15.3634 20.3915 14.9339 19.0789 15.1245 18.2991C15.1543 18.2066 15.1475 18.1002 15.158 18.0101C15.1225 17.9868 15.1101 17.971 15.0959 17.9693C14.6031 17.9842 14.3769 17.7563 14.263 17.2582C14.1905 16.9377 14.1405 16.711 14.3788 16.465C14.5706 16.2087 14.3866 15.8225 14.7157 15.6157C14.8647 15.5226 14.8866 15.2514 15.0057 15.0876C15.3416 14.6992 15.6369 14.1669 16.1016 13.9423C16.558 13.7071 17.0066 13.4566 17.4743 13.2468C17.804 13.1169 18.195 13.1575 18.5432 13.1978C18.9862 13.2012 19.3344 13.3232 19.5857 13.746C19.7376 13.9989 19.8938 14.2139 19.8053 14.5253C19.7705 14.6605 19.7493 14.8021 19.7575 14.9375C19.8046 15.6824 19.0872 15.8249 18.5806 16.1647C18.4045 15.7505 17.9259 15.479 17.8825 14.9074C17.7867 14.9107 17.6708 14.8828 17.5759 14.9198C16.7295 15.2298 15.965 15.655 15.4887 16.4736C15.4655 16.5093 15.4782 16.5636 15.4727 16.611C15.5203 16.6117 15.5762 16.623 15.6072 16.6026C15.6844 16.5539 15.7579 16.4952 15.8091 16.4243C16.12 16.0042 16.7332 15.6912 17.257 15.7375C17.7211 15.8057 18.0649 16.2537 17.9812 16.729C17.9779 16.7574 17.9835 16.7917 17.9718 16.8095C17.8027 17.0348 17.6324 17.2695 17.4503 17.4837C17.4113 17.532 17.3009 17.5384 17.2251 17.5344C17.017 17.5199 16.8064 17.4858 16.5806 17.4597C16.5687 17.5207 16.5433 17.5754 16.5472 17.6238C16.5945 18.1623 16.0997 18.441 15.9235 18.8911C16.3582 19.172 16.6681 18.843 17.0142 18.7775C17.609 18.664 18.0257 18.237 18.4514 17.8542C18.669 17.6634 18.8285 17.3986 18.9863 17.148C19.3463 16.5511 20.0446 16.7377 20.6044 16.8026C20.6888 17.0621 20.77 17.3068 20.8555 17.5568L20.866 17.5484L20.8596 17.5621Z" fill="#B50000"/>
<path d="M20.8491 17.5704C21.087 17.4924 21.334 17.377 21.5861 17.3822C22.1094 17.4333 22.6401 17.4612 23.1516 17.5733C23.4865 17.6458 23.7196 17.4855 23.963 17.3601C24.2625 17.2028 24.5523 17.0059 24.8156 16.7915C25.0105 16.6317 24.9336 16.3491 24.7141 16.2276C24.3287 16.0149 24.0068 16.2416 23.6647 16.3556C23.5258 16.4019 23.3759 16.4614 23.2394 16.4456C22.9948 16.4172 22.7926 16.4754 22.5957 16.611C22.1593 16.9205 21.6246 17.0506 21.1136 16.8521C20.9918 16.7515 20.8799 16.6473 20.7154 16.5034C20.7204 16.2543 20.4119 15.9545 20.5724 15.5986C20.8397 15.0198 21.2067 14.4861 21.594 13.9837C21.7723 13.8027 21.9808 13.6492 21.949 13.3478C21.9445 13.3041 21.981 13.2363 22.0177 13.207C22.4311 12.89 22.8171 12.5218 23.2455 12.2402C23.6699 12.1981 24.102 12.0898 24.5166 12.1331C24.8083 12.1669 25.1048 12.3645 25.3495 12.5561C25.6735 12.805 25.6215 13.1302 25.3312 13.4135C25.0177 14.3902 24.113 13.5987 23.5284 14.0351C23.034 14.4339 22.523 14.8116 22.0245 15.2051C21.9777 15.2381 21.9642 15.3134 21.9399 15.3586C22.3314 15.6008 22.6383 15.3387 22.9331 15.1809C23.559 14.8405 24.2507 14.7142 24.8996 14.463C24.9594 14.4411 25.0244 14.415 25.0808 14.4216C25.5377 14.4697 25.9935 14.5274 26.478 14.5836C26.455 14.7825 26.4341 14.9626 26.4127 15.1474C26.3967 15.2848 26.3147 15.4577 26.5483 15.4992C26.4966 15.8629 26.4548 16.223 26.389 16.5851C26.3744 16.6698 26.2804 16.7405 26.2188 16.8198C26.0521 16.9829 25.9723 17.2185 25.8239 17.3886C25.6245 17.5863 25.356 17.7233 25.1968 17.9449C24.6686 18.6759 23.9577 19.2561 23.063 19.4068C22.335 19.7641 21.9242 19.2364 21.5469 18.7893C21.2492 18.4379 21.0739 17.9758 20.845 17.5652L20.8345 17.5735L20.8491 17.5704Z" fill="#B50000"/>
<path d="M66.7121 1.88147C66.688 2.08993 66.6591 2.29785 66.6391 2.5116C66.6265 2.7022 66.5271 2.90193 66.7522 3.05767C66.8006 3.0921 66.7615 3.26521 66.7583 3.37527C66.7503 3.48479 66.733 3.59321 66.7187 3.71639C66.8197 3.7089 66.9085 3.724 66.9741 3.69319C67.0549 3.65454 67.1787 3.57287 67.1754 3.51966C67.1565 3.14776 67.4757 2.94469 67.6008 2.6471C67.712 2.38632 67.9047 2.16378 68.0431 1.91575C68.1462 1.72603 68.3567 1.67842 68.5522 1.80192C68.6543 1.86658 68.7902 1.88713 68.9327 1.93247C68.8937 2.26885 68.8808 2.62746 68.8036 2.96421C68.7135 3.37149 68.8117 3.7574 68.8713 4.14842C68.9091 4.39769 68.6667 4.72009 68.4291 4.75496C68.2448 4.78161 67.9905 4.42562 68.0019 4.16286C68.0131 3.94329 68.019 3.7279 68.016 3.50669C68.0157 3.46825 67.9531 3.43218 67.9448 3.42162C67.7054 3.96523 67.511 4.49007 67.0731 4.89543C66.9921 4.97726 66.7772 5.06278 66.7387 5.02471C66.5971 4.88826 66.4459 4.71228 66.4051 4.52989C66.3637 4.35224 66.4463 4.17456 66.2779 3.98218C66.1848 3.88016 66.2988 3.59569 66.2984 3.39398C66.2972 3.32182 66.2291 3.2515 66.1944 3.18026C66.1646 3.1912 66.1347 3.20214 66.1054 3.20835C66.08 3.34465 66.0853 3.62854 66.0272 3.71785C65.6392 3.89852 65.8191 4.27949 65.7197 4.56086C65.6761 4.69025 65.596 4.80579 65.5341 4.92826C65.4695 5.07441 65.411 5.25008 65.2682 5.32957C65.2431 5.34105 65.1597 5.27857 65.1223 5.23103C64.9514 5.01915 64.9977 4.78444 65.1735 4.58396C65.2725 4.4706 65.2845 4.28473 65.3261 4.13111C65.3689 3.96802 65.2937 3.75284 65.5482 3.69592C65.5875 3.68607 65.6107 3.56872 65.6183 3.50239C65.6557 3.18022 65.6488 2.91054 65.8558 2.64645C65.905 2.55132 65.9547 2.45146 65.9715 2.34777C66.0387 1.93303 66.2508 1.78957 66.698 1.87983L66.7121 1.88147Z" fill="#B50000"/>
<path d="M63.8021 2.88368C63.7738 2.88041 63.6878 2.84162 63.6327 2.86405C63.2247 3.05202 62.8503 3.3207 62.4016 3.40791C62.2717 2.96552 62.329 2.63606 62.8098 2.51895C62.869 2.50181 62.9381 2.48102 62.9901 2.44384C63.5573 2.03425 64.3157 2.03096 64.8632 1.58548C65.2929 1.25118 65.7646 1.7476 66.1965 1.39435C66.2653 1.33512 66.4178 1.3768 66.557 1.36893C66.5094 1.6563 66.2745 1.66748 66.1196 1.76956C65.7069 1.95698 65.3084 2.22768 64.9944 2.55138C64.7865 2.78175 64.5451 3.01305 64.528 3.36637C64.5209 3.42796 64.501 3.51689 64.4601 3.54095C64.2015 3.67422 64.2493 3.91983 64.224 4.13777C64.1677 4.58258 64.1072 5.0221 64.0697 5.46909C64.0461 5.75445 63.8481 5.89954 63.6417 5.95244C63.5286 5.98253 63.345 5.79799 63.2148 5.68687C63.1669 5.64771 63.1655 5.53711 63.1742 5.4613C63.2261 4.97276 63.2785 4.47949 63.3445 3.99259C63.3555 3.89783 63.4412 3.81654 63.4946 3.7267C63.6764 3.4741 63.6958 3.18346 63.7985 2.87366L63.8021 2.88368Z" fill="#B50000"/>
<path d="M44.9692 14.6484C45.0269 14.5207 45.0432 14.4217 45.0592 14.366C45.0785 14.2818 45.1243 14.1334 45.2159 13.8368C45.3309 13.4612 45.3962 13.4736 45.5619 13.0318C45.5884 12.9677 45.6803 12.7095 45.7586 12.3632C45.8085 12.1385 45.8484 11.9175 45.8654 11.7706C45.9319 11.1974 45.8069 10.6307 45.7048 10.2779C45.6441 10.1845 45.5834 10.091 45.5274 9.99811C45.3702 9.87424 45.2129 9.75037 45.0772 9.605C44.8323 9.33173 44.5353 9.13884 44.2053 9.02377C44.0633 8.97369 43.8686 9.09036 43.6979 9.12339C43.5906 9.14455 43.4716 9.18358 43.3803 9.14898C43.0149 9.01059 42.7264 9.07316 42.492 9.36768C42.4525 9.42072 42.3836 9.47996 42.3266 9.47815C41.9547 9.47825 41.7505 9.80028 41.5647 10.0044C41.2643 10.3345 41.0593 10.7861 40.9136 11.2205C40.7094 11.8306 40.5312 12.463 40.7116 13.1273C40.7249 13.1768 40.7203 13.2579 40.6929 13.2884C40.6335 13.3487 40.6222 13.405 40.6042 13.4365C40.5235 13.5568 40.6374 13.7669 40.6943 13.8935C40.9186 14.3852 40.702 14.485 40.9256 14.8182C41.0552 15.0157 41.1831 15.0641 41.2556 15.303C41.2936 15.4274 41.2751 15.4637 41.3299 15.5661C41.3973 15.6843 41.4734 15.7268 41.654 15.8966C41.7357 15.9732 41.7996 16.0383 41.8334 16.0758C41.9427 16.0789 42.0578 16.073 42.1682 16.0666C42.4366 16.0545 43.1101 16.003 43.7102 15.5972C43.969 15.4207 43.9889 15.3318 44.3379 15.1178C44.5483 14.9886 44.7298 14.904 44.8504 14.8507C44.8847 14.8019 44.9264 14.7299 44.9703 14.639L44.9692 14.6484ZM43.3443 14.5176C43.1515 14.5769 43.0051 14.6464 42.8366 14.6605C42.6053 14.6817 42.4897 14.6922 42.3734 14.626C42.158 14.5098 42.0942 14.2383 42.0819 14.1792C42.058 14.0564 42.069 13.9617 42.0145 13.6913C42.0048 13.6517 41.9893 13.6211 41.9951 13.6122C42.183 13.3075 41.9317 12.9662 42.0126 12.7211C42.1713 12.2162 42.1196 11.634 42.5414 11.2028C42.8823 10.8534 43.2274 10.5909 43.7213 10.4849C44.1072 10.4048 44.5255 10.6214 44.4889 11.1837C44.4736 11.398 44.4635 11.6081 44.4388 11.8213C44.4245 11.9445 44.3914 12.0655 44.3771 12.1886C44.2954 12.9762 43.771 13.5924 43.5342 14.3188C43.5107 14.3977 43.414 14.4921 43.3349 14.5166L43.3443 14.5176Z" fill="#B50000"/>
<path d="M40.2473 15.3637C40.2365 15.3337 40.1508 15.1269 39.9216 15.0475C39.7243 14.9814 39.5533 15.0576 39.5182 15.0728C39.4595 15.0852 39.3967 15.0923 39.3386 15.0999C39.3386 15.0999 39.3381 15.1047 39.3422 15.11C39.1829 15.1683 38.9907 15.2229 38.7713 15.2646C38.6152 15.2946 38.4661 15.3061 38.3363 15.315C38.2937 15.3533 38.2465 15.391 38.2039 15.4293C38.1837 15.3982 38.1551 15.3564 38.113 15.3084C37.954 15.1171 37.8345 15.0792 37.7179 14.9744C37.6054 14.875 37.5389 14.7088 37.4099 14.3818C37.3104 14.1302 37.2582 14.0041 37.2803 13.8962C37.2913 13.8014 37.3415 13.6968 37.2828 13.6276C37.2454 13.5801 37.192 13.5883 37.1593 13.5413C37.1064 13.4631 37.1605 13.3253 37.1879 13.2949C37.8572 12.5803 38.4489 11.7942 38.9964 10.979C39.6415 10.1847 40.2169 9.33438 40.7563 8.46543C40.9969 8.0756 41.123 7.60527 41.4146 7.26937C41.6183 7.03371 41.6453 6.80156 41.7126 6.55008C41.7153 6.52639 41.7515 6.50179 41.7756 6.49977C41.9635 6.48315 41.9376 6.3361 41.9613 6.21401C41.9839 6.10139 41.9918 5.91025 42.0515 5.88837C42.2659 5.80759 42.237 5.64579 42.265 5.48579C42.2796 5.40106 42.3089 5.31322 42.3465 5.23595C42.4174 5.07613 42.5208 4.92486 42.5641 4.75703C42.6118 4.5513 42.5983 4.33847 42.7974 4.1839C43.0724 3.74523 42.7605 3.10409 43.2475 2.72842C43.3713 2.27703 43.2555 1.83628 43.0244 1.44457C42.8374 1.1252 42.519 1.19871 42.2436 1.14758C42.1453 1.13139 42.0344 1.14253 41.9425 1.11267C41.5088 0.947146 41.1299 1.1721 40.752 1.30594C40.3941 1.43249 40.0902 1.70936 39.7334 1.82643C39.2078 2.00077 38.976 2.47805 38.6351 2.82745C38.2832 3.18997 38.0551 3.67728 37.776 4.11066C37.4081 4.61058 37.2938 5.22632 37.0981 5.80381C37.0838 5.84536 37.0484 5.90368 37.0196 5.90514C36.8282 5.91175 36.8587 6.05934 36.8356 6.17669C36.805 6.31719 36.8071 6.50469 36.7167 6.58544C36.4192 6.84863 36.4677 7.25278 36.2729 7.5759C36.0665 7.91688 36.1452 8.43017 35.8639 8.80087C35.7218 9.98477 35.5876 11.184 35.4497 12.3732C35.4348 12.5011 35.4754 12.645 35.5286 12.7616C35.6439 13.0007 35.6192 13.2139 35.4409 13.3948C34.8081 14.0417 34.1747 14.6933 33.5164 15.3132C33.3024 15.514 33.004 15.7435 32.7519 15.7383C32.4094 15.7322 32.1361 15.8686 31.8318 15.9437C31.2071 16.0681 31.3406 16.8903 31.5906 17.2842C32.0636 18.3857 33.3908 17.5889 33.9124 16.9148C34.474 16.1828 35.1782 15.5779 35.7185 14.8243C35.744 14.8512 35.7795 14.8745 35.795 14.9052C35.9267 15.2085 36.018 15.5312 36.1854 15.8147C36.3683 16.1288 36.612 16.4115 36.8405 16.7021C36.961 16.8553 37.0408 16.9078 37.1424 16.9772C37.5176 17.2367 37.9611 17.2353 38.2657 17.1986C38.4447 17.1762 38.6594 17.1338 38.8979 17.0511C39.271 16.9167 39.5545 16.7335 39.7436 16.5825C39.8534 16.4992 40.1661 16.2282 40.2424 15.7761C40.2699 15.6208 40.2618 15.4855 40.2456 15.378L40.2473 15.3637ZM37.1111 11.4903C37.2068 10.8291 37.2236 10.1493 37.3631 9.52206C37.693 9.26742 37.6 8.87732 37.6813 8.54584C37.7503 8.36179 37.927 8.19501 37.9611 7.98291C38.0105 7.76296 37.9585 7.51206 38.2218 7.37934C38.2675 7.35582 38.2682 7.22626 38.2822 7.14627C38.3067 6.97625 38.293 6.80661 38.4907 6.7047C38.5568 6.66915 38.552 6.50534 38.5923 6.40438C38.6787 6.19353 38.7721 5.96428 38.884 5.78039C38.8728 5.34217 39.2351 5.09608 39.4038 4.75074C39.6588 4.23773 40.0317 3.85844 40.4844 3.53161C40.6667 3.39909 40.779 3.41692 40.9272 3.57814C41.156 3.82554 41.4016 4.05087 41.2755 4.43958C41.2611 4.48112 41.2612 4.56276 41.2371 4.56477C40.9607 4.60475 41.0514 4.85053 40.9763 5.00507C40.3902 6.1951 39.7988 7.38932 39.0698 8.49556C38.4768 9.49754 37.9642 10.5472 37.2602 11.4787C37.2434 11.5008 37.1786 11.4837 37.1116 11.4855L37.1111 11.4903Z" stroke="#B50000" stroke-width="0.35"/>
<path d="M56.6048 4.88208C56.5714 4.10037 55.6116 4.11392 55.1398 4.48176C53.9582 5.33866 52.7932 6.2167 51.6941 7.18401C51.5401 7.3198 51.3996 7.38033 51.1983 7.26577C51.2551 7.02268 51.1423 6.7215 51.4684 6.58166C51.4935 6.57017 51.4949 6.51751 51.5087 6.4807C51.6404 6.20789 51.7093 5.86056 51.8848 5.62163C52.0355 5.43263 52.2451 5.26968 52.3226 5.053C52.5297 4.50083 53.0438 4.1379 53.2013 3.56078C53.2046 3.53236 53.2627 3.52469 53.2848 3.49844C53.3395 3.43757 53.4136 3.37414 53.4265 3.30362C53.4643 3.10153 53.4879 2.8978 53.4969 2.69718C53.5167 2.32017 53.0192 1.96479 52.7313 2.18589C52.2347 2.60366 51.8326 3.15242 51.5093 3.71993C51.3585 3.95211 51.1575 4.16408 51.0473 4.41539C50.8581 4.8544 50.4962 5.22056 50.4657 5.73078C50.4629 5.75447 50.4439 5.79547 50.4245 5.79803C50.1689 5.86442 50.2674 6.12551 50.1714 6.25363C49.9954 6.4973 49.9633 6.81528 49.8011 7.02214C49.6615 7.19801 49.6281 7.3622 49.5826 7.54898C49.5407 7.66415 49.447 7.77333 49.3768 7.88523C49.3503 7.94937 49.329 8.00933 49.3031 8.06874C49.281 8.17662 49.2772 8.29141 49.2635 8.40986C49.2259 8.40549 49.1835 8.40058 49.1553 8.39731C48.8739 8.97447 48.5304 9.51082 48.1988 10.0678C47.8609 10.6384 47.559 11.2276 47.2476 11.8156C47.2084 11.9071 47.1733 12.0039 47.1388 12.0959C47.1635 12.0892 47.1828 12.0866 47.2011 12.0935C46.7681 12.7443 46.6169 13.5959 45.9183 14.0286C45.6249 14.2155 45.5822 14.4602 45.7867 14.7528C45.9335 14.9667 46.0961 15.168 46.2692 15.3609C46.5769 15.7087 47.2177 15.6101 47.3565 15.1941C47.4219 15 47.4187 14.822 47.6117 14.6379C47.7616 14.4968 47.7441 14.1539 47.9415 13.9319C48.0626 13.7923 47.9959 13.5445 48.2083 13.3579C48.3676 13.2179 48.3125 12.8706 48.5292 12.646C48.6591 12.5123 48.5684 12.1848 48.8223 12.051C48.8375 12.0432 48.8471 12.0011 48.8499 11.9774C48.8734 11.692 48.982 11.455 49.1309 11.1985C49.3934 10.744 49.7692 10.5043 50.2328 10.3708C50.6127 10.2612 50.8068 10.4374 50.767 10.8217C50.7049 11.357 50.7076 11.9095 50.5667 12.4261C50.3976 13.0211 50.7341 13.4491 50.9277 13.918C51.0805 14.2863 51.9861 14.5353 52.3282 14.3397C53.1919 13.8396 53.9002 13.0767 54.4429 12.261C54.6577 12.0122 54.6359 11.7888 54.7043 11.5278L54.3044 11.4815C54.3064 11.5057 54.3125 11.5352 54.3144 11.5595C54.1913 11.5932 54.0729 11.6275 53.9462 11.6512C53.8242 11.6755 53.68 11.6444 53.5783 11.6998C53.1224 11.9302 52.7096 12.2425 52.2233 12.4069C52.2036 12.371 52.1834 12.3399 52.1637 12.304C52.2098 11.906 52.279 11.5155 52.2969 11.1143C52.3126 10.732 52.4495 10.3733 52.2505 9.95174C52.0551 9.54016 51.91 9.18725 51.4456 9.08059C51.3872 8.68009 51.5701 8.41801 51.8904 8.20547C52.5928 7.73954 53.2703 7.24191 53.9846 6.79657C54.108 6.71965 54.4409 6.76785 54.5146 6.87242C54.7019 7.14862 54.911 7.07203 55.1284 7.00601C55.482 6.91736 55.6278 6.56455 55.8213 6.29409C55.9503 6.1266 56.1107 5.97715 56.222 5.798C56.4025 5.51643 56.6195 5.24869 56.6012 4.87206L56.6048 4.88208Z" stroke="#B50000" stroke-width="0.35"/>
<path d="M9.62021 12.1921C9.5456 12.63 9.22261 12.8662 8.99653 13.1713C8.82103 13.4102 8.67266 13.6619 8.49716 13.9008C7.9938 14.5003 7.58319 15.1633 7.15015 15.8141C6.84166 16.1721 6.56971 16.5439 6.36337 16.9665C6.20089 17.2165 6.02484 17.4602 5.84102 17.6885C5.72998 17.9061 5.66268 18.1576 5.50898 18.3319C5.14105 18.7501 4.96137 19.2719 4.68783 19.7395C4.24697 20.2934 3.93069 20.9241 3.59614 21.5479C3.42957 21.8743 3.1163 22.1501 3.03692 22.5058C2.68248 22.8488 2.56364 23.3392 2.26181 23.7219C1.90995 24.1661 1.58871 24.1817 1.23858 23.7473C0.976254 23.4192 0.739649 23.0749 0.802341 22.6164C0.807834 22.5691 0.800862 22.5058 0.827681 22.4801C1.24132 22.12 1.08675 21.6027 1.19068 21.1586C1.22017 21.0276 1.19431 20.8805 1.38077 20.8349C1.53117 20.6891 1.4811 20.3808 1.52824 20.1798C1.55296 19.9666 1.5896 19.774 1.72722 19.5739C1.86375 19.3833 1.85076 19.0841 1.9081 18.8362C1.9387 18.6957 1.91229 18.5534 2.08762 18.4393C2.19575 18.3702 2.19554 18.1253 2.22943 17.9564C2.27162 17.7981 2.254 17.58 2.29926 17.4364C2.73907 17.2617 2.50545 16.8505 2.61062 16.5602C2.65203 16.4497 2.61927 16.3211 2.79217 16.2691C2.85137 16.252 2.88055 16.0825 2.90204 15.9794C2.95523 15.7263 2.95502 15.4814 3.12636 15.2371C3.28085 15.015 3.27696 14.6784 3.39295 14.4182C3.45153 14.3242 3.52838 14.237 3.55928 14.135C3.59819 14.0051 3.58228 13.8544 3.61648 13.7239C3.79717 13.3991 3.88815 13.0256 4.00102 12.6689C3.97028 12.6462 3.9343 12.6276 3.90356 12.6048C3.10138 13.232 2.32774 13.901 1.51365 14.5076C1.32451 14.6585 1.14681 14.9164 0.90135 14.5662C0.856192 14.5034 0.737483 14.4992 0.64614 14.4646C0.63535 14.1465 0.693788 13.8892 0.991605 13.6644C1.84021 12.9658 2.58964 12.1356 3.38422 11.3683C3.87849 10.8062 4.44864 10.3297 5.04843 9.88549C5.0852 9.85614 5.15216 9.8543 5.20391 9.8603C5.47677 9.89194 5.75433 9.92412 6.06012 9.95957C5.98981 10.566 5.9206 11.163 5.85194 11.7552C5.84809 11.7884 5.82848 11.8341 5.80277 11.8503C5.5226 12.0051 5.59949 12.2877 5.53854 12.5255C5.47039 12.7433 5.30979 12.9359 5.24994 13.1642C5.16163 13.4325 5.32131 13.7823 4.95207 13.9652C4.88126 14.0002 4.90774 14.2241 4.88656 14.3657C4.86129 14.5836 4.83877 14.7779 4.66461 14.9642C4.54573 15.0848 4.58193 15.3483 4.52177 15.5382C4.46051 15.7375 4.2927 15.9101 4.24086 16.1106C4.20893 16.3037 4.19581 16.4991 4.17329 16.6933C4.16725 16.7455 4.16677 16.8318 4.13635 16.8475C3.71731 17.0486 3.95203 17.4503 3.82279 17.7426C4.03229 17.7861 3.9963 17.7676 4.07033 17.6225C4.18828 17.3865 4.36464 17.1813 4.50501 16.9575C5.49916 15.2914 6.55116 13.6608 7.73135 12.1171C8.21349 11.2896 8.86341 10.5775 9.46848 9.84099C9.78638 9.48413 10.1126 9.13783 10.456 8.80793C10.7667 8.51266 11.5271 8.45197 11.8767 8.68457C12.1378 8.85888 12.1572 9.14441 12.1494 9.41719C12.1225 9.73098 12.0941 10.1406 12.0219 10.4347C11.6596 10.6808 11.7709 11.0778 11.7031 11.4157C11.6488 11.6783 11.6839 11.9512 11.439 12.1725C11.327 12.2747 11.3632 12.5382 11.3266 12.7308C11.2706 13.0076 11.3489 13.3192 11.0381 13.5328C10.9446 13.5988 10.9778 13.8476 10.9538 14.0128C10.9335 14.1881 10.9132 14.3634 10.8929 14.5387C10.8863 14.5956 10.8858 14.6819 10.8554 14.6976C10.4847 14.8515 10.6303 15.1997 10.5666 15.4612C10.5297 15.6154 10.5303 15.7739 10.5122 15.9302C10.5056 15.9871 10.511 16.0645 10.4794 16.0897C10.0707 16.4072 10.2433 16.893 10.1302 17.2928C10.0891 17.4416 9.99261 17.5745 9.93324 17.7165C9.78659 18.0356 9.78357 18.3905 9.74402 18.7316C9.7659 18.7486 9.78777 18.7655 9.80965 18.7825C10.3309 18.358 10.5985 17.736 10.9848 17.1998C12.2957 15.3928 13.4518 13.4814 14.6787 11.6166C15.0617 11.0272 15.5156 10.4845 15.8537 9.87069C16.2295 9.17963 16.7619 8.61717 17.2506 8.02083C17.4728 7.74891 17.8117 7.58173 18.0428 7.31563C18.3507 6.96242 18.6855 6.66513 19.1248 6.49519C19.4011 6.29195 19.6784 6.07923 19.9901 5.89931C20.2006 5.77006 20.5183 5.53802 20.735 5.60155C21.0302 5.85184 21.4274 6.00353 21.5968 6.39288C21.6717 6.56961 21.5974 6.75786 21.5959 6.93534C21.6114 7.33567 21.4177 7.64932 21.2052 7.96078C20.9786 8.27061 20.8353 8.64291 20.591 8.94108C20.0457 9.44924 19.5088 9.96797 18.947 10.455C18.1094 11.1405 17.2356 11.769 16.5207 12.5888C16.3966 12.7137 16.2595 12.8274 16.1104 12.9206C15.5697 13.266 15.2467 13.7903 14.9268 14.3294C14.5642 14.9068 14.1521 15.4592 13.8339 16.0657C13.5235 16.481 13.258 16.9208 12.9966 17.3658C12.2856 18.4405 11.4057 19.4092 10.704 20.4851C10.5167 20.785 10.2626 20.962 10.0359 21.1902C9.91118 21.3198 9.84302 21.5376 9.70227 21.6413C9.4835 21.76 9.25532 21.8776 9.01742 21.9556C8.9383 21.9801 8.81647 21.8795 8.71211 21.8338C8.698 21.8322 8.69823 21.789 8.68412 21.7873C8.24575 21.7029 8.17098 21.3197 8.03733 20.9921C7.98214 20.8513 7.99196 20.6844 7.93152 20.5477C7.73162 20.0924 7.85186 19.631 7.9046 19.1762C7.92767 18.9772 7.89068 18.7616 8.1169 18.6198C8.19351 18.5759 8.20803 18.4095 8.22176 18.2911C8.26963 17.9605 8.29867 17.6278 8.33712 17.2961C8.3547 17.1445 8.31386 16.9621 8.54737 16.922C8.5814 16.9163 8.60924 16.7995 8.61748 16.7285C8.65295 16.4637 8.67955 16.1931 8.71086 15.923C8.73809 15.7293 8.70001 15.5233 8.92097 15.3856C8.99758 15.3417 9.00324 15.1695 9.03054 15.0574C9.11432 14.6638 9.00851 14.2194 9.36906 13.9059C9.39588 13.8802 9.39832 13.8181 9.40326 13.7754C9.45929 13.2922 9.48239 12.8051 9.76039 12.3812C9.85904 12.2294 9.80722 12.1418 9.61355 12.1673L9.62021 12.1921Z" stroke="#B50000" stroke-width="0.35"/>
<path d="M12.385 25.5198C12.2735 25.6173 12.2044 25.7198 12.1627 25.7101C11.7594 25.6105 11.4351 25.8994 11.0593 25.9327C10.9243 25.9459 10.7918 25.9785 10.661 25.9969C10.6416 25.9995 10.6145 25.9868 10.6092 25.9909C10.3803 26.2381 10.0518 26.152 9.77099 26.2299C9.47084 26.3103 9.20815 26.5199 8.86057 26.4748C8.67239 26.453 8.46357 26.568 8.27021 26.632C7.1222 26.9935 5.99277 27.4003 4.89994 27.9026C4.36415 28.1238 3.80673 28.2848 3.30505 28.5819C2.84783 28.7834 2.36818 28.9727 1.96388 29.2523C1.82151 29.0821 1.5275 28.904 1.68002 28.6576C1.74801 28.5647 1.84423 28.475 1.94601 28.4196C2.55919 28.1065 3.17708 27.7941 3.80218 27.5016C5.41472 26.7523 7.05525 26.0494 8.77401 25.5765C9.114 25.4815 9.47037 25.4508 9.77649 25.2366C9.82323 25.2036 9.92233 25.2535 9.99039 25.2422C10.1852 25.2072 10.3791 25.1384 10.5702 25.0934C10.6242 25.0804 10.7031 25.0992 10.7257 25.0682C10.9153 24.8309 11.1161 24.9502 11.3363 24.9421C11.5135 24.689 11.8312 24.8266 12.0486 24.679C12.131 24.6261 12.2575 24.6456 12.3607 24.6191C12.4544 24.5916 12.5452 24.5493 12.6353 24.5117C12.6605 24.5003 12.6754 24.454 12.6942 24.4561C12.9765 24.4889 13.2263 24.4314 13.4968 24.3187C13.8282 24.1747 14.2245 24.211 14.5608 24.0244C14.6117 23.9966 14.6828 24.0001 14.745 23.9977C14.9072 23.9973 15.0896 24.1097 15.1946 23.8626C15.2136 23.8216 15.4148 23.8545 15.533 23.8634C15.6559 23.8728 15.779 23.9207 15.8564 23.7472C15.876 23.7015 16.0459 23.7164 16.151 23.7142C16.2943 23.7116 16.4721 23.8234 16.5424 23.5867C16.5446 23.5678 16.5903 23.5442 16.6085 23.5512C16.8776 23.616 17.103 23.5221 17.353 23.4214C17.828 23.2316 18.4036 23.2839 18.8846 23.1236C19.1316 23.0082 19.4405 23.0584 19.6147 22.9538C19.8556 22.8089 20.0438 22.8307 20.2712 22.8427C20.3042 22.8465 20.367 22.8394 20.3733 22.8257C20.4575 22.5522 20.6643 22.701 20.8239 22.6811C20.9255 22.6689 21.0142 22.6023 21.1133 22.5706C21.1924 22.5462 21.2798 22.5323 21.3614 22.5273C21.5252 22.5127 21.7315 22.6663 21.8303 22.3896C21.8383 22.3618 22.0025 22.3856 22.0929 22.3865C22.241 22.3844 22.4223 22.5063 22.5131 22.2575C22.5269 22.2207 22.7146 22.2473 22.8192 22.2498C22.9572 22.2514 23.1225 22.3474 23.1818 22.1238C23.1835 22.1096 23.2097 22.0886 23.2191 22.0897C23.5153 22.1673 23.7744 22.0293 24.0458 21.9503C24.2135 21.9025 24.435 22.0482 24.554 21.8028C24.7808 21.7378 25.0752 21.9544 25.2614 21.6639C25.2899 21.624 25.4341 21.6551 25.5282 21.666C25.6787 21.6835 25.798 21.6829 25.9226 21.5533C25.9931 21.4799 26.1891 21.517 26.3576 21.5029C26.3653 21.4366 26.3757 21.3466 26.3861 21.2565C26.409 21.1007 26.3734 20.9142 26.5867 20.8429C26.6213 20.8325 26.64 20.753 26.6555 20.702C26.8379 20.1566 26.9389 19.5729 27.2429 19.0896C27.3096 18.8428 27.3351 18.5817 27.3972 18.3344C27.4888 18.0378 27.6645 17.7557 27.7144 17.4493C27.8307 16.6514 27.8258 15.8298 28.147 15.0748C28.1683 15.0148 28.2033 14.918 28.1778 14.8911C27.9283 14.6173 28.1361 14.3053 28.091 13.9543C27.6885 14.0949 27.2564 14.2849 26.8377 14.1547C26.6727 14.0972 26.545 13.9239 26.4013 13.8064C26.1476 13.609 26.161 13.3704 26.2186 13.0794C26.2414 12.9236 26.216 12.6902 26.3037 12.6332C26.5042 12.5076 26.7565 12.4696 26.9881 12.4052C27.0279 12.3906 27.0999 12.4278 27.1214 12.4063C27.4324 12.0678 27.7935 12.3257 28.1288 12.3118C28.1817 12.3083 28.237 12.3243 28.3123 12.3331C28.4161 11.4376 28.57 10.5624 28.5906 9.68612C28.5956 9.3554 28.4647 9.00411 28.4917 8.64714C28.5055 8.5287 28.3623 8.40647 28.339 8.27892C28.2883 7.97536 28.4946 7.7592 28.6538 7.53758C28.688 7.48874 28.7965 7.4581 28.8629 7.461C29.2481 7.51046 29.7611 7.4451 30.0107 7.80054C30.2143 8.14105 30.3682 8.4998 30.267 8.9202C30.2183 9.13541 30.2154 9.36555 30.1854 9.58294C30.1535 9.7761 30.2243 10.0292 29.9341 10.106C29.9142 10.1133 29.8982 10.169 29.8943 10.2022C29.8493 10.5907 29.8048 10.9744 29.7597 11.3629C30.0932 11.4064 30.4926 11.1694 30.642 10.8266C30.7008 10.6894 30.75 10.5943 30.9215 10.595C31.0026 10.5948 31.0944 10.543 31.1669 10.4938C31.8502 9.98722 32.6284 10.1015 33.3955 10.2288C33.4729 10.5067 33.5966 10.7563 33.5794 11.028C33.4937 11.479 33.3178 11.8859 32.9453 12.1788C32.7462 12.3334 32.5305 12.4668 32.3616 12.6489C32.0843 12.9433 31.7759 13.0131 31.395 12.9258C31.1255 12.8657 30.8366 12.8898 30.5734 12.8161C30.1342 12.698 29.8721 12.9845 29.5884 13.2108C29.5254 13.2612 29.5241 13.3955 29.5084 13.4897C29.3304 15.0247 29.153 16.555 28.9656 18.089C28.9326 18.2916 28.7349 18.4751 28.683 18.6756C28.6407 18.9588 28.6166 19.2489 28.5789 19.5326C28.5522 19.7215 28.6111 19.954 28.3356 20.0277C28.311 20.0345 28.2933 20.1044 28.2884 20.1471C28.2532 20.4503 28.218 20.7535 28.1725 21.1468C28.4009 21.0676 28.5445 21.0218 28.7191 20.9557C29.2279 20.885 29.7478 20.8829 30.2299 20.7131C30.4801 20.6941 30.7299 20.7183 30.9634 20.5965C30.9578 20.5622 30.9517 20.5327 30.9508 20.499C31.0779 20.5137 31.2032 20.5427 31.3319 20.5432C31.5497 20.5156 31.7662 20.4159 31.9917 20.4036C32.1838 20.3923 32.4047 20.5427 32.5506 20.2715C32.5696 20.2305 32.7409 20.2744 32.8408 20.2764C32.9407 20.2784 33.0985 20.3159 33.128 20.2665C33.29 20.0212 33.5026 20.1611 33.6952 20.145C33.9124 20.1221 34.1176 19.9971 34.3409 20.0038C34.5354 20.0119 34.7145 20.0711 34.9011 19.9007C34.9968 19.8157 35.2337 19.9104 35.4069 19.8969C35.5226 19.8863 35.6385 19.8325 35.7472 19.7587C36.0272 19.7287 36.3225 19.8542 36.5802 19.6056C36.6286 19.5584 36.7747 19.6138 36.8741 19.6205C37.0393 19.6348 37.1746 19.6601 37.3433 19.5212C37.4594 19.4243 37.7293 19.5228 37.9255 19.5167C38.0306 19.5145 38.1318 19.4638 38.2356 19.4326C38.23 19.3984 38.2291 19.3647 38.2236 19.3304C38.4234 19.3344 38.745 19.4389 38.9201 19.3679C39.1178 19.1844 39.3495 19.2833 39.563 19.2504C39.9227 19.1913 40.2885 19.1617 40.6398 19.092C40.8744 19.0424 41.0908 18.9858 41.3296 19.0231C41.3766 19.0286 41.4403 19.0552 41.4666 19.0342C41.7414 18.802 42.096 18.9919 42.3508 18.8918C42.6758 18.7615 43.0188 18.8877 43.2658 18.7722C43.5836 18.6218 43.9013 18.7595 44.152 18.6541C44.4833 18.5101 44.8299 18.6463 45.0816 18.5314C45.3988 18.3858 45.6711 18.4221 45.9739 18.4428C46.0021 18.4461 46.0403 18.4457 46.0519 18.4279C46.2465 18.1479 46.5097 18.3033 46.7471 18.3116C46.8706 18.3163 47.0015 18.3795 47.0658 18.1949C47.2218 18.0834 47.5171 18.2088 47.7003 18.1917C47.796 18.1884 47.8931 18.1324 47.9874 18.1001C47.9819 18.0659 47.9758 18.0363 47.9749 18.0026C48.1584 18.0239 48.3371 18.0446 48.5206 18.0659C48.6523 18.0812 48.7979 18.1413 48.8633 17.9472C49.0182 17.8451 49.334 17.9586 49.5244 17.9614C49.5762 17.9674 49.6703 17.9783 49.6819 17.9605C49.8401 17.6235 50.1087 17.8563 50.3259 17.8335C50.4562 17.8198 50.6032 17.9088 50.6692 17.71C50.8241 17.6079 51.1164 17.7187 51.302 17.721C51.3585 17.7275 51.4468 17.7474 51.4636 17.7253C51.6637 17.398 51.9475 17.623 52.194 17.5939C52.3102 17.5786 52.4162 17.5285 52.5299 17.4936C52.5284 17.4647 52.5218 17.4399 52.5204 17.4109C52.685 17.43 52.8522 17.4686 53.0149 17.4634C53.2609 17.4391 53.5043 17.3137 53.7594 17.3337C54.0192 17.3542 54.2741 17.4174 54.5241 17.2351C54.6228 17.1649 54.8274 17.2511 54.9807 17.2448C55.3832 17.1859 55.7941 17.1375 56.205 17.1707C56.3949 17.1783 56.5834 17.2386 56.7423 17.0601C56.7802 17.0213 56.8754 17.0228 56.9459 17.0309C57.1958 17.0551 57.443 17.103 57.6903 17.1076C57.9994 17.1147 58.3134 16.9974 58.6183 16.9992C59.1604 17.0524 59.702 17.1104 60.2414 17.1873C60.5366 17.2312 60.8202 17.2112 61.0961 17.4641C61.2725 17.6286 61.4788 17.7822 61.6425 17.974C61.6929 18.0326 61.7217 18.1128 61.6863 18.1711C61.6217 18.3173 61.5153 18.4538 61.493 18.6049C61.4193 19.0765 61.1036 19.4144 60.6324 19.4894C60.514 19.5237 60.3794 19.6569 60.2549 19.6617C59.8702 19.6075 59.4399 19.6584 59.1207 19.4101C59.0581 19.3741 59.0019 19.3243 58.9319 19.3114C58.3687 19.1933 57.8748 18.8479 57.2685 18.8545C56.9965 18.8566 56.719 18.6179 56.4465 18.6247C55.9977 18.6303 55.5286 18.6047 55.0968 18.6699C54.7523 18.7212 54.4272 18.7699 54.0843 18.7254C54.0467 18.721 53.995 18.715 53.9787 18.7323C53.6967 19.0261 53.3594 18.8094 53.0391 18.8587C52.6828 19.0526 52.315 18.9764 51.9475 18.9386C51.68 19.2725 51.3358 18.9925 51.0235 19.0955C50.7591 19.2377 50.4682 19.156 50.2007 19.2018C49.8457 19.2615 49.4624 19.2362 49.146 19.334C48.8242 19.4359 48.545 19.4179 48.2412 19.4067C48.1989 19.4018 48.1325 19.3989 48.1156 19.421C47.9442 19.6652 47.7048 19.551 47.492 19.5359C47.3262 19.5263 47.1831 19.4857 47.0217 19.6447C46.9401 19.7312 46.6927 19.6449 46.5253 19.6495C46.3914 19.6532 46.207 19.5166 46.1574 19.7797C46.1552 19.7987 46.0254 19.8076 45.959 19.8047C45.6751 19.7862 45.403 19.7067 45.1165 19.8751C44.9832 19.9557 44.7526 19.8473 44.585 19.8951C44.2602 19.9823 43.9437 20.08 43.6011 19.9923C43.541 19.9757 43.4669 20.0392 43.3978 20.0599C43.2794 20.0942 43.1588 20.1475 43.0401 20.1433C42.7938 20.1292 42.5649 20.0882 42.3323 20.2437C42.2342 20.3091 42.0484 20.2252 41.9034 20.242C41.7438 20.2619 41.5875 20.335 41.4243 20.3449C41.2317 20.361 41.0336 20.3428 40.839 20.3347C40.6874 20.3267 40.5011 20.2475 40.5121 20.5224C40.2957 20.4973 40.1097 20.4566 39.9277 20.4643C39.7586 20.4831 39.5983 20.6325 39.4184 20.6213C39.1641 20.635 38.89 20.4496 38.6562 20.7394C38.6009 20.805 38.377 20.7214 38.23 20.714C38.1307 20.7073 37.9782 20.6656 37.9439 20.7144C37.759 20.9522 37.5204 20.7901 37.3187 20.8436C36.9505 20.9353 36.5739 20.9349 36.212 21.013C35.9968 21.06 35.7993 21.1187 35.5839 21.0842C35.5228 21.0771 35.4256 21.0514 35.3983 21.0819C35.1407 21.4121 34.7594 21.123 34.4723 21.2146C34.3682 21.4954 34.1578 21.3366 33.9898 21.3459C33.937 21.3494 33.865 21.3122 33.8293 21.3321C33.5386 21.4952 33.2351 21.5225 32.9138 21.4564C32.8809 21.4526 32.8206 21.5608 32.7485 21.6485C32.5058 21.6444 32.175 21.4956 31.9511 21.7001C31.7926 21.7922 31.4818 21.7177 31.2878 21.7048C31.2939 21.7343 31.2953 21.7633 31.3014 21.7928C30.8896 21.9323 30.4535 21.9922 30.0183 22.0042C29.8738 22.0162 29.6717 21.868 29.6205 22.1453C29.6188 22.1595 29.5555 22.1714 29.5226 22.1676C28.9063 22.0961 28.3387 22.3856 27.7358 22.4453C27.5814 22.4611 27.4027 22.7284 27.3237 22.9161C27.1627 23.2768 26.7485 23.6417 26.431 23.8305C25.917 23.6989 24.6888 23.8062 24.7828 22.996C24.277 23.0814 23.8167 23.2682 23.3261 23.2641C22.9814 23.3586 22.6398 23.4678 22.2951 23.5623C22.2213 23.5825 22.1263 23.5379 22.0483 23.5529C21.6372 23.6444 21.2239 23.755 20.8216 23.8524C20.6177 23.8431 20.4032 23.7607 20.2481 23.9876C20.2255 24.0185 20.107 23.9712 20.0384 23.9872C19.8389 24.0217 19.6439 24.0999 19.4486 24.1397C19.2447 24.1305 19.026 24.0427 18.8793 24.2802C18.6676 24.3373 18.3639 24.1196 18.2059 24.4134C17.9862 24.4983 17.6722 24.2459 17.5162 24.5639C17.2935 24.6341 16.9873 24.3969 16.8265 24.7144C16.6154 24.7667 16.3106 24.5585 16.1489 24.8423C16.131 24.8738 16.0291 24.8476 15.9705 24.86C15.7049 24.9301 15.4399 24.9954 15.1715 25.0074C14.5216 25.1434 13.8832 25.3862 13.2192 25.4389C13.0626 25.4736 12.9108 25.5904 12.7475 25.6003C12.6094 25.5987 12.4747 25.5686 12.3853 25.5583L12.385 25.5198Z" stroke="#B50000" stroke-width="0.35"/>
<path d="M59.9748 6.57401C59.927 6.9862 59.8754 7.43155 59.8243 7.87216C59.8194 7.9148 59.8059 7.99006 59.7766 7.99626C59.4999 8.07942 59.5389 8.31921 59.5305 8.5151C59.5182 8.74415 59.4409 8.91764 59.2445 9.04852C59.1101 9.13857 59.0007 9.26032 58.8782 9.37095C58.5338 8.92771 58.3321 8.61143 58.0746 8.07742C57.0188 8.21909 56.027 9.00197 55.5491 9.99809C55.7743 9.94737 55.9611 9.94022 56.1038 9.86074C56.3184 9.73677 56.4865 9.52099 56.7041 9.41178C57.098 9.22218 57.5104 8.9963 57.9672 9.25092C58.4483 9.46035 58.2478 10.3254 57.9819 10.6451C57.7436 10.8911 57.4905 10.977 57.1457 10.9082C56.3306 10.7417 56.5175 11.8437 56.4007 12.3583C56.5916 12.4381 56.7236 12.4102 56.8906 12.2855C57.0524 12.165 57.2801 12.1338 57.474 12.065C57.803 11.9831 58.062 11.7635 58.3599 11.6204C58.7527 11.4402 59.1053 11.2363 59.0252 10.694C59.0564 10.712 59.0883 10.7253 59.1195 10.7434C59.3241 10.4598 59.3517 10.0981 59.5009 9.79846C59.5821 9.67344 59.8959 9.68101 60.0173 9.57985C60.1513 9.36972 60.2299 9.43165 60.343 9.60801C60.4524 9.77434 60.5428 9.98168 60.8032 9.99747C60.855 10.0035 60.9027 10.1675 60.9446 10.2587C61.0494 10.5062 61.0163 10.7088 60.8904 10.9727C60.7258 11.3233 60.526 11.6074 60.2644 11.8892C59.9819 12.1877 59.7281 12.4848 59.3381 12.6413C59.2333 12.6819 59.1252 12.751 59.04 12.8276C58.638 13.1699 58.1131 13.2147 57.6589 13.4309C57.4769 13.5202 57.2675 13.5583 57.0891 13.6577C56.7454 13.8675 56.3811 13.7197 56.0166 13.6966C55.1898 13.5911 54.9074 12.819 55.0935 12.0771C55.1401 11.8809 55.0442 11.6393 55.3111 11.5166C55.3866 11.4821 55.3928 11.3052 55.4295 11.1942C55.3847 11.1698 55.3634 11.1481 55.3393 11.1501C54.693 11.2144 54.5251 10.6476 54.2306 10.2677C54.148 10.1573 54.2195 9.91115 54.2451 9.73166C54.2676 9.53741 54.2295 9.33133 54.4792 9.19224C54.6272 9.10856 54.7347 8.88094 54.7843 8.69944C54.8414 8.4948 54.9669 8.39892 55.1218 8.29684C55.4006 8.11309 55.6226 7.88435 55.7905 7.58693C55.874 7.44296 56.0175 7.31555 56.166 7.22714C56.9661 6.78214 57.7868 6.11866 58.7536 6.37479C58.8936 6.40063 59.0558 6.48186 59.1533 6.25789C59.1671 6.22108 59.4153 6.25946 59.538 6.31209C59.6836 6.37219 59.8048 6.47748 59.9643 6.58239L59.9748 6.57401Z" stroke="#B50000" stroke-width="0.35"/>
<path d="M20.8596 17.5621C20.6384 17.6612 20.5422 17.8325 20.5048 18.0731C20.4853 18.2005 20.3846 18.328 20.292 18.4277C19.7699 19.025 19.1643 19.5598 18.4391 19.8934C18.0668 20.0615 17.6086 20.066 17.2784 20.2822C16.9277 20.5104 16.6315 20.3512 16.3061 20.3615C15.3634 20.3915 14.9339 19.0789 15.1245 18.2991C15.1543 18.2066 15.1475 18.1002 15.158 18.0101C15.1225 17.9868 15.1101 17.971 15.0959 17.9693C14.6031 17.9842 14.3769 17.7563 14.263 17.2582C14.1905 16.9377 14.1405 16.711 14.3788 16.465C14.5706 16.2087 14.3866 15.8225 14.7157 15.6157C14.8647 15.5226 14.8866 15.2514 15.0057 15.0876C15.3416 14.6992 15.6369 14.1669 16.1016 13.9423C16.558 13.7071 17.0066 13.4566 17.4743 13.2468C17.804 13.1169 18.195 13.1575 18.5432 13.1978C18.9862 13.2012 19.3344 13.3232 19.5857 13.746C19.7376 13.9989 19.8938 14.2139 19.8053 14.5253C19.7705 14.6605 19.7493 14.8021 19.7575 14.9375C19.8046 15.6824 19.0872 15.8249 18.5806 16.1647C18.4045 15.7505 17.9259 15.479 17.8825 14.9074C17.7867 14.9107 17.6708 14.8828 17.5759 14.9198C16.7295 15.2298 15.965 15.655 15.4887 16.4736C15.4655 16.5093 15.4782 16.5636 15.4727 16.611C15.5203 16.6117 15.5762 16.623 15.6072 16.6026C15.6844 16.5539 15.7579 16.4952 15.8091 16.4243C16.12 16.0042 16.7332 15.6912 17.257 15.7375C17.7211 15.8057 18.0649 16.2537 17.9812 16.729C17.9779 16.7574 17.9835 16.7917 17.9718 16.8095C17.8027 17.0348 17.6324 17.2695 17.4503 17.4837C17.4113 17.532 17.3009 17.5384 17.2251 17.5344C17.017 17.5199 16.8064 17.4858 16.5806 17.4597C16.5687 17.5207 16.5433 17.5754 16.5472 17.6238C16.5945 18.1623 16.0997 18.441 15.9235 18.8911C16.3582 19.172 16.6681 18.843 17.0142 18.7775C17.609 18.664 18.0257 18.237 18.4514 17.8542C18.669 17.6634 18.8285 17.3986 18.9863 17.148C19.3463 16.5511 20.0446 16.7377 20.6044 16.8026C20.6888 17.0621 20.77 17.3068 20.8555 17.5568L20.866 17.5484L20.8596 17.5621Z" stroke="#B50000" stroke-width="0.35"/>
<path d="M20.8491 17.5704C21.087 17.4924 21.334 17.377 21.5861 17.3822C22.1094 17.4333 22.6401 17.4612 23.1516 17.5733C23.4865 17.6458 23.7196 17.4855 23.963 17.3601C24.2625 17.2028 24.5523 17.0059 24.8156 16.7915C25.0105 16.6317 24.9336 16.3491 24.7141 16.2276C24.3287 16.0149 24.0068 16.2416 23.6647 16.3556C23.5258 16.4019 23.3759 16.4614 23.2394 16.4456C22.9948 16.4172 22.7926 16.4754 22.5957 16.611C22.1593 16.9205 21.6246 17.0506 21.1136 16.8521C20.9918 16.7515 20.8799 16.6473 20.7154 16.5034C20.7204 16.2543 20.4119 15.9545 20.5724 15.5986C20.8397 15.0198 21.2067 14.4861 21.594 13.9837C21.7723 13.8027 21.9808 13.6492 21.949 13.3478C21.9445 13.3041 21.981 13.2363 22.0177 13.207C22.4311 12.89 22.8171 12.5218 23.2455 12.2402C23.6699 12.1981 24.102 12.0898 24.5166 12.1331C24.8083 12.1669 25.1048 12.3645 25.3495 12.5561C25.6735 12.805 25.6215 13.1302 25.3312 13.4135C25.0177 14.3902 24.113 13.5987 23.5284 14.0351C23.034 14.4339 22.523 14.8116 22.0245 15.2051C21.9777 15.2381 21.9642 15.3134 21.9399 15.3586C22.3314 15.6008 22.6383 15.3387 22.9331 15.1809C23.559 14.8405 24.2507 14.7142 24.8996 14.463C24.9594 14.4411 25.0244 14.415 25.0808 14.4216C25.5377 14.4697 25.9935 14.5274 26.478 14.5836C26.455 14.7825 26.4341 14.9626 26.4127 15.1474C26.3967 15.2848 26.3147 15.4577 26.5483 15.4992C26.4966 15.8629 26.4548 16.223 26.389 16.5851C26.3744 16.6698 26.2804 16.7405 26.2188 16.8198C26.0521 16.9829 25.9723 17.2185 25.8239 17.3886C25.6245 17.5863 25.356 17.7233 25.1968 17.9449C24.6686 18.6759 23.9577 19.2561 23.063 19.4068C22.335 19.7641 21.9242 19.2364 21.5469 18.7893C21.2492 18.4379 21.0739 17.9758 20.845 17.5652L20.8345 17.5735L20.8491 17.5704Z" stroke="#B50000" stroke-width="0.35"/>
<path d="M66.7121 1.88147C66.688 2.08993 66.6591 2.29785 66.6391 2.5116C66.6265 2.7022 66.5271 2.90193 66.7522 3.05767C66.8006 3.0921 66.7615 3.26521 66.7583 3.37527C66.7503 3.48479 66.733 3.59321 66.7187 3.71639C66.8197 3.7089 66.9085 3.724 66.9741 3.69319C67.0549 3.65454 67.1787 3.57287 67.1754 3.51966C67.1565 3.14776 67.4757 2.94469 67.6008 2.6471C67.712 2.38632 67.9047 2.16378 68.0431 1.91575C68.1462 1.72603 68.3567 1.67842 68.5522 1.80192C68.6543 1.86658 68.7902 1.88713 68.9327 1.93247C68.8937 2.26885 68.8808 2.62746 68.8036 2.96421C68.7135 3.37149 68.8117 3.7574 68.8713 4.14842C68.9091 4.39769 68.6667 4.72009 68.4291 4.75496C68.2448 4.78161 67.9905 4.42562 68.0019 4.16286C68.0131 3.94329 68.019 3.7279 68.016 3.50669C68.0157 3.46825 67.9531 3.43218 67.9448 3.42162C67.7054 3.96523 67.511 4.49007 67.0731 4.89543C66.9921 4.97726 66.7772 5.06278 66.7387 5.02471C66.5971 4.88826 66.4459 4.71228 66.4051 4.52989C66.3637 4.35224 66.4463 4.17456 66.2779 3.98218C66.1848 3.88016 66.2988 3.59569 66.2984 3.39398C66.2972 3.32182 66.2291 3.2515 66.1944 3.18026C66.1646 3.1912 66.1347 3.20214 66.1054 3.20835C66.08 3.34465 66.0853 3.62854 66.0272 3.71785C65.6392 3.89852 65.8191 4.27949 65.7197 4.56086C65.6761 4.69025 65.596 4.80579 65.5341 4.92826C65.4695 5.07441 65.411 5.25008 65.2682 5.32957C65.2431 5.34105 65.1597 5.27857 65.1223 5.23103C64.9514 5.01915 64.9977 4.78444 65.1735 4.58396C65.2725 4.4706 65.2845 4.28473 65.3261 4.13111C65.3689 3.96802 65.2937 3.75284 65.5482 3.69592C65.5875 3.68607 65.6107 3.56872 65.6183 3.50239C65.6557 3.18022 65.6488 2.91054 65.8558 2.64645C65.905 2.55132 65.9547 2.45146 65.9715 2.34777C66.0387 1.93303 66.2508 1.78957 66.698 1.87983L66.7121 1.88147Z" stroke="#B50000" stroke-width="0.35"/>
<path d="M63.8021 2.88368C63.7738 2.88041 63.6878 2.84162 63.6327 2.86405C63.2247 3.05202 62.8503 3.3207 62.4016 3.40791C62.2717 2.96552 62.329 2.63606 62.8098 2.51895C62.869 2.50181 62.9381 2.48102 62.9901 2.44384C63.5573 2.03425 64.3157 2.03096 64.8632 1.58548C65.2929 1.25118 65.7646 1.7476 66.1965 1.39435C66.2653 1.33512 66.4178 1.3768 66.557 1.36893C66.5094 1.6563 66.2745 1.66748 66.1196 1.76956C65.7069 1.95698 65.3084 2.22768 64.9944 2.55138C64.7865 2.78175 64.5451 3.01305 64.528 3.36637C64.5209 3.42796 64.501 3.51689 64.4601 3.54095C64.2015 3.67422 64.2493 3.91983 64.224 4.13777C64.1677 4.58258 64.1072 5.0221 64.0697 5.46909C64.0461 5.75445 63.8481 5.89954 63.6417 5.95244C63.5286 5.98253 63.345 5.79799 63.2148 5.68687C63.1669 5.64771 63.1655 5.53711 63.1742 5.4613C63.2261 4.97276 63.2785 4.47949 63.3445 3.99259C63.3555 3.89783 63.4412 3.81654 63.4946 3.7267C63.6764 3.4741 63.6958 3.18346 63.7985 2.87366L63.8021 2.88368Z" stroke="#B50000" stroke-width="0.35"/>
<path d="M44.9692 14.6484C45.0269 14.5207 45.0432 14.4217 45.0592 14.366C45.0785 14.2818 45.1243 14.1334 45.2159 13.8368C45.3309 13.4612 45.3962 13.4736 45.5619 13.0318C45.5884 12.9677 45.6803 12.7095 45.7586 12.3632C45.8085 12.1385 45.8484 11.9175 45.8654 11.7706C45.9319 11.1974 45.8069 10.6307 45.7048 10.2779C45.6441 10.1845 45.5834 10.091 45.5274 9.99811C45.3702 9.87424 45.2129 9.75037 45.0772 9.605C44.8323 9.33173 44.5353 9.13884 44.2053 9.02377C44.0633 8.97369 43.8686 9.09036 43.6979 9.12339C43.5906 9.14455 43.4716 9.18358 43.3803 9.14898C43.0149 9.01059 42.7264 9.07316 42.492 9.36768C42.4525 9.42072 42.3836 9.47996 42.3266 9.47815C41.9547 9.47825 41.7505 9.80028 41.5647 10.0044C41.2643 10.3345 41.0593 10.7861 40.9136 11.2205C40.7094 11.8306 40.5312 12.463 40.7116 13.1273C40.7249 13.1768 40.7203 13.2579 40.6929 13.2884C40.6335 13.3487 40.6222 13.405 40.6042 13.4365C40.5235 13.5568 40.6374 13.7669 40.6943 13.8935C40.9186 14.3852 40.702 14.485 40.9256 14.8182C41.0552 15.0157 41.1831 15.0641 41.2556 15.303C41.2936 15.4274 41.2751 15.4637 41.3299 15.5661C41.3973 15.6843 41.4734 15.7268 41.654 15.8966C41.7357 15.9732 41.7996 16.0383 41.8334 16.0758C41.9427 16.0789 42.0578 16.073 42.1682 16.0666C42.4366 16.0545 43.1101 16.003 43.7102 15.5972C43.969 15.4207 43.9889 15.3318 44.3379 15.1178C44.5483 14.9886 44.7298 14.904 44.8504 14.8507C44.8847 14.8019 44.9264 14.7299 44.9703 14.639L44.9692 14.6484ZM43.3443 14.5176C43.1515 14.5769 43.0051 14.6464 42.8366 14.6605C42.6053 14.6817 42.4897 14.6922 42.3734 14.626C42.158 14.5098 42.0942 14.2383 42.0819 14.1792C42.058 14.0564 42.069 13.9617 42.0145 13.6913C42.0048 13.6517 41.9893 13.6211 41.9951 13.6122C42.183 13.3075 41.9317 12.9662 42.0126 12.7211C42.1713 12.2162 42.1196 11.634 42.5414 11.2028C42.8823 10.8534 43.2274 10.5909 43.7213 10.4849C44.1072 10.4048 44.5255 10.6214 44.4889 11.1837C44.4736 11.398 44.4635 11.6081 44.4388 11.8213C44.4245 11.9445 44.3914 12.0655 44.3771 12.1886C44.2954 12.9762 43.771 13.5924 43.5342 14.3188C43.5107 14.3977 43.414 14.4921 43.3349 14.5166L43.3443 14.5176Z" stroke="#B50000" stroke-width="0.35"/>
</svg>
