<svg width="408" height="72" viewBox="0 0 408 72" fill="none" xmlns="http://www.w3.org/2000/svg">
<path d="M1.08008 14.5781H9.22461L16.9297 45.8086H17.3105L25.4844 14.5781H33.0137L41.2168 45.8379H41.5684L49.2441 14.5781H57.418L45.4941 57H37.9062L29.4395 27.1465H29.0879L20.5918 57H13.0332L1.08008 14.5781ZM69.7109 57.6152C66.5664 57.6152 63.832 56.9512 61.5078 55.623C59.1836 54.2949 57.3867 52.4004 56.1172 49.9395C54.8672 47.4785 54.2422 44.5977 54.2422 41.2969C54.2422 38.0352 54.8672 35.1543 56.1172 32.6543C57.3867 30.1348 59.1543 28.1914 61.4199 26.8242C63.6855 25.457 66.3223 24.7734 69.3301 24.7734C72.0449 24.7734 74.4961 25.3496 76.6836 26.502C78.8711 27.6543 80.6094 29.4414 81.8984 31.8633C83.1875 34.2656 83.832 37.2441 83.832 40.7988V43.1426H57.7871V38.0742H76.6836C76.6836 36.6289 76.3809 35.3398 75.7754 34.207C75.1699 33.0742 74.3105 32.1855 73.1973 31.541C72.1035 30.8965 70.8438 30.5742 69.418 30.5742C67.8945 30.5742 66.5469 30.9355 65.375 31.6582C64.2031 32.3809 63.2852 33.3574 62.6211 34.5879C61.9766 35.7988 61.6445 37.127 61.625 38.5723V42.9082C61.625 44.7637 61.957 46.3652 62.6211 47.7129C63.3047 49.041 64.2617 50.0566 65.4922 50.7598C66.7227 51.4629 68.1582 51.8145 69.7988 51.8145C70.8535 51.8145 71.8008 51.668 72.6406 51.375C73.5 51.082 74.2324 50.7012 74.8379 50.2324C75.4434 49.7441 75.9023 49.168 76.2148 48.5039H83.5391C83.0898 50.3203 82.2402 51.9219 80.9902 53.3086C79.7598 54.6758 78.1777 55.7402 76.2441 56.502C74.3105 57.2441 72.1328 57.6152 69.7109 57.6152ZM104.68 34.2363C104.445 32.9863 103.84 32.0195 102.863 31.3359C101.887 30.6523 100.617 30.3105 99.0547 30.3105C98 30.3105 97.0527 30.4668 96.2129 30.7793C95.373 31.0918 94.709 31.541 94.2207 32.127C93.752 32.7129 93.5176 33.3672 93.5176 34.0898C93.498 34.9297 93.8594 35.6523 94.6016 36.2578C95.3438 36.8633 96.4961 37.3418 98.0586 37.6934L103.479 38.8652C106.486 39.4902 108.723 40.5156 110.188 41.9414C111.672 43.3672 112.414 45.2129 112.414 47.4785C112.414 49.4512 111.857 51.209 110.744 52.752C109.631 54.2754 108.059 55.4668 106.027 56.3262C103.996 57.1855 101.604 57.6152 98.8496 57.6152C96.1738 57.6152 93.8594 57.2344 91.9062 56.4727C89.9531 55.7109 88.4102 54.6074 87.2773 53.1621C86.1445 51.6973 85.4414 49.959 85.168 47.9473H92.7559C93.0293 49.2754 93.6738 50.2812 94.6895 50.9648C95.7051 51.6289 97.082 51.9609 98.8203 51.9609C100.012 51.9609 101.057 51.8145 101.955 51.5215C102.854 51.209 103.547 50.7695 104.035 50.2031C104.523 49.6172 104.768 48.9336 104.768 48.1523C104.768 47.2148 104.396 46.4434 103.654 45.8379C102.912 45.2324 101.75 44.7637 100.168 44.4316L95.041 43.377C92.0918 42.752 89.8555 41.6875 88.332 40.1836C86.8281 38.6602 86.0762 36.7754 86.0762 34.5293C86.0762 32.5762 86.6035 30.8672 87.6582 29.4023C88.7324 27.918 90.2363 26.7754 92.1699 25.9746C94.123 25.1738 96.3887 24.7734 98.9668 24.7734C101.447 24.7734 103.615 25.1641 105.471 25.9453C107.346 26.707 108.82 27.8008 109.895 29.2266C110.969 30.6523 111.584 32.3223 111.74 34.2363H104.68ZM130.947 30.9258H112.725V25.1836H130.947V30.9258ZM124.707 17.5664V47.4492C124.707 48.4062 124.854 49.1582 125.146 49.7051C125.439 50.2324 125.83 50.6035 126.318 50.8184C126.826 51.0137 127.432 51.1211 128.135 51.1406C128.994 51.1602 130.078 51.1113 131.387 50.9941V57.1172C130.176 57.332 128.77 57.4395 127.168 57.4395C125.254 57.4395 123.545 57.1172 122.041 56.4727C120.537 55.8086 119.355 54.8223 118.496 53.5137C117.637 52.2051 117.217 50.584 117.236 48.6504V17.5664H124.707ZM141.922 57H134.48V14.5781H141.922V57ZM159.986 57.6152C156.939 57.6152 154.254 56.9316 151.93 55.5645C149.625 54.1973 147.848 52.2734 146.598 49.793C145.348 47.3125 144.723 44.4512 144.723 41.209C144.723 37.9277 145.348 35.0566 146.598 32.5957C147.848 30.1152 149.625 28.1914 151.93 26.8242C154.254 25.457 156.939 24.7734 159.986 24.7734C163.053 24.7734 165.738 25.457 168.043 26.8242C170.348 28.1914 172.115 30.1152 173.346 32.5957C174.576 35.0566 175.191 37.9277 175.191 41.209C175.191 44.4512 174.576 47.3125 173.346 49.793C172.115 52.2734 170.348 54.1973 168.043 55.5645C165.738 56.9316 163.053 57.6152 159.986 57.6152ZM160.045 51.668C161.686 51.668 163.072 51.209 164.205 50.291C165.357 49.3535 166.217 48.0938 166.783 46.5117C167.35 44.9297 167.633 43.1523 167.633 41.1797C167.633 39.1875 167.35 37.4004 166.783 35.8184C166.217 34.2363 165.357 32.9863 164.205 32.0684C163.072 31.1309 161.686 30.6621 160.045 30.6621C158.365 30.6621 156.939 31.1309 155.768 32.0684C154.596 32.9863 153.717 34.2363 153.131 35.8184C152.545 37.4004 152.252 39.1875 152.252 41.1797C152.252 43.1719 152.545 44.959 153.131 46.541C153.717 48.1035 154.596 49.3535 155.768 50.291C156.939 51.209 158.365 51.668 160.045 51.668ZM184.818 37.957H186.02L197.475 25.1836H206.205L192.084 40.8281H190.59L184.818 46.9512V37.957ZM178.051 14.5781H185.492V57H178.051V14.5781ZM187.602 42.498L192.641 37.2539L206.938 57H198.031L187.602 42.498ZM220.402 57.6152C217.258 57.6152 214.523 56.9512 212.199 55.623C209.875 54.2949 208.078 52.4004 206.809 49.9395C205.559 47.4785 204.934 44.5977 204.934 41.2969C204.934 38.0352 205.559 35.1543 206.809 32.6543C208.078 30.1348 209.846 28.1914 212.111 26.8242C214.377 25.457 217.014 24.7734 220.021 24.7734C222.736 24.7734 225.188 25.3496 227.375 26.502C229.562 27.6543 231.301 29.4414 232.59 31.8633C233.879 34.2656 234.523 37.2441 234.523 40.7988V43.1426H208.479V38.0742H227.375C227.375 36.6289 227.072 35.3398 226.467 34.207C225.861 33.0742 225.002 32.1855 223.889 31.541C222.795 30.8965 221.535 30.5742 220.109 30.5742C218.586 30.5742 217.238 30.9355 216.066 31.6582C214.895 32.3809 213.977 33.3574 213.312 34.5879C212.668 35.7988 212.336 37.127 212.316 38.5723V42.9082C212.316 44.7637 212.648 46.3652 213.312 47.7129C213.996 49.041 214.953 50.0566 216.184 50.7598C217.414 51.4629 218.85 51.8145 220.49 51.8145C221.545 51.8145 222.492 51.668 223.332 51.375C224.191 51.082 224.924 50.7012 225.529 50.2324C226.135 49.7441 226.594 49.168 226.906 48.5039H234.23C233.781 50.3203 232.932 51.9219 231.682 53.3086C230.451 54.6758 228.869 55.7402 226.936 56.502C225.002 57.2441 222.824 57.6152 220.402 57.6152ZM246.219 57L261.16 14.5781H270.564L285.506 57H277.361L266.023 23.25H265.672L254.334 57H246.219ZM277.01 40.3594V46.4824H254.656V40.3594H277.01ZM287.281 25.1836H294.4V30.5742H294.752C295.455 28.7383 296.559 27.3125 298.062 26.2969C299.586 25.2812 301.412 24.7734 303.541 24.7734C304.947 24.7734 306.227 25.0078 307.379 25.4766C308.531 25.9258 309.508 26.5801 310.309 27.4395C311.109 28.2988 311.715 29.3438 312.125 30.5742H312.447C312.936 29.3828 313.639 28.3574 314.557 27.498C315.475 26.6191 316.568 25.9453 317.838 25.4766C319.127 25.0078 320.523 24.7734 322.027 24.7734C324 24.7734 325.729 25.1934 327.213 26.0332C328.717 26.8535 329.879 28.084 330.699 29.7246C331.539 31.3457 331.959 33.3281 331.959 35.6719V57H324.488V36.7852C324.488 34.8906 323.98 33.4648 322.965 32.5078C321.949 31.5312 320.631 31.043 319.01 31.043C317.818 31.043 316.783 31.3066 315.904 31.834C315.045 32.3418 314.381 33.0449 313.912 33.9434C313.463 34.8418 313.238 35.8965 313.238 37.1074V57H305.943V36.4629C305.943 35.3887 305.719 34.4414 305.27 33.6211C304.82 32.7812 304.195 32.1465 303.395 31.7168C302.594 31.2676 301.666 31.043 300.611 31.043C299.537 31.043 298.551 31.3164 297.652 31.8633C296.754 32.4102 296.041 33.1816 295.514 34.1777C294.986 35.1738 294.723 36.3262 294.723 37.6348V57H287.281V25.1836ZM336.137 25.1836H343.432V30.4277H343.9C344.447 29.373 345.053 28.4551 345.717 27.6738C346.4 26.8926 347.348 26.2187 348.559 25.6523C349.789 25.0664 351.264 24.7734 352.982 24.7734C355.482 24.7734 357.719 25.4082 359.691 26.6777C361.684 27.9277 363.246 29.793 364.379 32.2734C365.531 34.7344 366.107 37.6836 366.107 41.1211C366.107 44.5195 365.541 47.459 364.408 49.9395C363.295 52.4199 361.742 54.3145 359.75 55.623C357.758 56.9121 355.512 57.5566 353.012 57.5566C351.312 57.5566 349.848 57.2734 348.617 56.707C347.406 56.1211 346.449 55.4473 345.746 54.6855C345.062 53.9238 344.447 53.0254 343.9 51.9902H343.578V68.9531H336.137V25.1836ZM343.402 41.0625C343.402 43.1133 343.695 44.9297 344.281 46.5117C344.867 48.0742 345.727 49.2852 346.859 50.1445C348.012 51.0039 349.379 51.4336 350.961 51.4336C352.582 51.4336 353.959 50.9941 355.092 50.1152C356.244 49.2168 357.104 47.9961 357.67 46.4531C358.256 44.8906 358.549 43.0938 358.549 41.0625C358.549 39.0703 358.256 37.3027 357.67 35.7598C357.104 34.2168 356.254 33.0254 355.121 32.1855C353.988 31.3262 352.602 30.8965 350.961 30.8965C349.359 30.8965 347.992 31.3164 346.859 32.1562C345.727 32.9766 344.867 34.1484 344.281 35.6719C343.695 37.1953 343.402 38.9922 343.402 41.0625ZM387.043 34.2363C386.809 32.9863 386.203 32.0195 385.227 31.3359C384.25 30.6523 382.98 30.3105 381.418 30.3105C380.363 30.3105 379.416 30.4668 378.576 30.7793C377.736 31.0918 377.072 31.541 376.584 32.127C376.115 32.7129 375.881 33.3672 375.881 34.0898C375.861 34.9297 376.223 35.6523 376.965 36.2578C377.707 36.8633 378.859 37.3418 380.422 37.6934L385.842 38.8652C388.85 39.4902 391.086 40.5156 392.551 41.9414C394.035 43.3672 394.777 45.2129 394.777 47.4785C394.777 49.4512 394.221 51.209 393.107 52.752C391.994 54.2754 390.422 55.4668 388.391 56.3262C386.359 57.1855 383.967 57.6152 381.213 57.6152C378.537 57.6152 376.223 57.2344 374.27 56.4727C372.316 55.7109 370.773 54.6074 369.641 53.1621C368.508 51.6973 367.805 49.959 367.531 47.9473H375.119C375.393 49.2754 376.037 50.2812 377.053 50.9648C378.068 51.6289 379.445 51.9609 381.184 51.9609C382.375 51.9609 383.42 51.8145 384.318 51.5215C385.217 51.209 385.91 50.7695 386.398 50.2031C386.887 49.6172 387.131 48.9336 387.131 48.1523C387.131 47.2148 386.76 46.4434 386.018 45.8379C385.275 45.2324 384.113 44.7637 382.531 44.4316L377.404 43.377C374.455 42.752 372.219 41.6875 370.695 40.1836C369.191 38.6602 368.439 36.7754 368.439 34.5293C368.439 32.5762 368.967 30.8672 370.021 29.4023C371.096 27.918 372.6 26.7754 374.533 25.9746C376.486 25.1738 378.752 24.7734 381.33 24.7734C383.811 24.7734 385.979 25.1641 387.834 25.9453C389.709 26.707 391.184 27.8008 392.258 29.2266C393.332 30.6523 393.947 32.3223 394.104 34.2363H387.043Z" fill="black"/>
<path d="M395.652 13.3438H400.285V14.3125H398.551V19H397.391V14.3125H395.652V13.3438ZM402.465 13.3438L404.039 17.1758H404.105L405.676 13.3438H407.125V19H405.984V15.293H405.938L404.461 18.9727H403.676L402.203 15.2852H402.156V19H401.02V13.3438H402.465Z" fill="black"/>
</svg>
